<mxfile host="app.diagrams.net" agent="Mozilla/5.0 (Windows NT 10.0; Win64; x64; rv:134.0) Gecko/20100101 Firefox/134.0" version="28.2.5" pages="2">
  <diagram name="Page-1" id="h-0O8EApjiBt9kNf1d6J">
    <mxGraphModel dx="5774" dy="3460" grid="1" gridSize="10" guides="1" tooltips="1" connect="1" arrows="1" fold="1" page="1" pageScale="1" pageWidth="850" pageHeight="1100" math="0" shadow="0">
      <root>
        <mxCell id="0" />
        <mxCell id="1" parent="0" />
        <UserObject label="" plantUmlData="{&quot;data&quot;:&quot;@startuml Comunicacao_BuscaAnalise\n\ntitle Diagrama de Comunicação: Busca e Análise de Veículos (UC01, UC02, UC07)\n\n&#39; Definição dos Objetos\nobject Usuario\nobject UI\nobject Controller\nobject Service\nobject Repository\nobject BD\nobject Enriquecimento\n\n&#39; Layout / Posição (para melhor visualização de comunicação)\nUsuario -[hidden]up- UI\nUI -[hidden]down- Controller\nController -[hidden]down- Service\nService -[hidden]down- Repository\nRepository -[hidden]left- BD\nService -[hidden]right- Enriquecimento\n\n\n&#39; --- Fluxo de Busca (1.x) ---\n\nUsuario --&gt; UI : **1: iniciarBusca(filtros)**\nUI --&gt; Controller : **1.1: buscar(filtros)**\nController --&gt; Service : **1.2: processarBusca(filtros)**\nService --&gt; Repository : **1.3: consultarAnuncios(filtros)**\nRepository ---&gt; BD : **1.3.1: SELECT Anuncios**\nBD ---&gt; Repository : **1.3.2: retornarDadosBrutos()**\nRepository --&gt; Service : **1.4: retornarAnuncios()**\n\n&#39; --- Enriquecimento (1.5 - 1.6) ---\nService --&gt; Enriquecimento : **1.5: solicitarAnaliseMercado(lista)**\nEnriquecimento -&gt; Enriquecimento : **1.5.1: calcularFIPE_Media()**\nEnriquecimento --&gt; Service : **1.6: retornarDadosEnriquecidos()**\n\n&#39; --- Exibição (1.7 - 1.9) ---\nService --&gt; Controller : **1.7: retornarResultados()**\nController --&gt; UI : **1.8: exibirResultados()**\nUI --&gt; Usuario : **1.9: Visualizar Lista Unificada**\n\n&#39; --- Fluxo de Detalhes (2.x) ---\n\nUsuario --&gt; UI : **2: clicarNoAnuncio(id)**\nUI --&gt; Controller : **2.1: acessarDetalhes(id)**\nController --&gt; Service : **2.2: obterDetalhesCompletos(id)**\nService --&gt; Repository : **2.3: consultarDetalhes(id)**\nRepository --&gt; Service : **2.4: retornarDetalhes()**\nService --&gt; Controller : **2.5: retornarDetalhes()**\nController --&gt; UI : **2.6: exibirTelaDetalhes()**\nUI --&gt; Usuario : **2.7: Visualizar Detalhes**\n\n@enduml&quot;,&quot;format&quot;:&quot;svg&quot;}" id="lkofwXcr7X9-6kQjYrpD-1">
          <mxCell style="shape=image;noLabel=1;verticalAlign=top;aspect=fixed;imageAspect=0;image=data:image/svg+xml,PHN2ZyB4bWxucz0iaHR0cDovL3d3dy53My5vcmcvMjAwMC9zdmciIHhtbG5zOnhsaW5rPSJodHRwOi8vd3d3LnczLm9yZy8xOTk5L3hsaW5rIiBjb250ZW50U3R5bGVUeXBlPSJ0ZXh0L2NzcyIgZGF0YS1kaWFncmFtLXR5cGU9IkNMQVNTIiBoZWlnaHQ9IjUyOHB4IiBwcmVzZXJ2ZUFzcGVjdFJhdGlvPSJub25lIiBzdHlsZT0id2lkdGg6MTA2OXB4O2hlaWdodDo1MjhweDtiYWNrZ3JvdW5kOiNGRkZGRkY7IiB2ZXJzaW9uPSIxLjEiIHZpZXdCb3g9IjAgMCAxMDY5IDUyOCIgd2lkdGg9IjEwNjlweCIgem9vbUFuZFBhbj0ibWFnbmlmeSI+PHRpdGxlPkRpYWdyYW1hIGRlIENvbXVuaWNhJiMyMzE7JiMyMjc7bzogQnVzY2EgZSBBbiYjMjI1O2xpc2UgZGUgVmUmIzIzNztjdWxvcyAoVUMwMSwgVUMwMiwgVUMwNyk8L3RpdGxlPjxkZWZzLz48Zz48dGV4dCBmaWxsPSIjMDAwMDAwIiBmb250LWZhbWlseT0ic2Fucy1zZXJpZiIgZm9udC1zaXplPSIxNCIgZm9udC13ZWlnaHQ9ImJvbGQiIGxlbmd0aEFkanVzdD0ic3BhY2luZyIgdGV4dExlbmd0aD0iNDk3IiB4PSIyNzkuMTgiIHk9IjIzLjIzNDQiPkRpYWdyYW1hIGRlIENvbXVuaWNhJiMyMzE7JiMyMjc7bzogQnVzY2EgZSBBbiYjMjI1O2xpc2UgZGUgVmUmIzIzNztjdWxvcyAoVUMwMSwgVUMwMiwgVUMwNyk8L3RleHQ+PGcgY2xhc3M9ImVudGl0eSIgZGF0YS1lbnRpdHk9IlVzdWFyaW8iIGRhdGEtc291cmNlLWxpbmU9IjQiIGRhdGEtdWlkPSJlbnQwMDAyIiBpZD0iZW50aXR5X1VzdWFyaW8iPjxyZWN0IGZpbGw9IiNGMUYxRjEiIGhlaWdodD0iMzQuOTg0NCIgcng9IjIuNSIgcnk9IjIuNSIgc3R5bGU9InN0cm9rZTojMTgxODE4O3N0cm9rZS13aWR0aDowLjU7IiB3aWR0aD0iNjMiIHg9IjQwMS4zNiIgeT0iNDg3LjczNDQiLz48dGV4dCBmaWxsPSIjMDAwMDAwIiBmb250LWZhbWlseT0ic2Fucy1zZXJpZiIgZm9udC1zaXplPSIxNCIgbGVuZ3RoQWRqdXN0PSJzcGFjaW5nIiB0ZXh0TGVuZ3RoPSI0OSIgeD0iNDA4LjM2IiB5PSI1MDIuOTY4OCI+VXN1YXJpbzwvdGV4dD48bGluZSBzdHlsZT0ic3Ryb2tlOiMxODE4MTg7c3Ryb2tlLXdpZHRoOjAuNTsiIHgxPSI0MDIuMzYiIHgyPSI0NjMuMzYiIHkxPSI1MDYuNzE4OCIgeTI9IjUwNi43MTg4Ii8+PC9nPjxnIGNsYXNzPSJlbnRpdHkiIGRhdGEtZW50aXR5PSJVSSIgZGF0YS1zb3VyY2UtbGluZT0iNSIgZGF0YS11aWQ9ImVudDAwMDMiIGlkPSJlbnRpdHlfVUkiPjxyZWN0IGZpbGw9IiNGMUYxRjEiIGhlaWdodD0iMzQuOTg0NCIgcng9IjIuNSIgcnk9IjIuNSIgc3R5bGU9InN0cm9rZTojMTgxODE4O3N0cm9rZS13aWR0aDowLjU7IiB3aWR0aD0iMjgiIHg9IjQxOC44NiIgeT0iMzc3LjczNDQiLz48dGV4dCBmaWxsPSIjMDAwMDAwIiBmb250LWZhbWlseT0ic2Fucy1zZXJpZiIgZm9udC1zaXplPSIxNCIgbGVuZ3RoQWRqdXN0PSJzcGFjaW5nIiB0ZXh0TGVuZ3RoPSIxNCIgeD0iNDI1Ljg2IiB5PSIzOTIuOTY4OCI+VUk8L3RleHQ+PGxpbmUgc3R5bGU9InN0cm9rZTojMTgxODE4O3N0cm9rZS13aWR0aDowLjU7IiB4MT0iNDE5Ljg2IiB4Mj0iNDQ1Ljg2IiB5MT0iMzk2LjcxODgiIHkyPSIzOTYuNzE4OCIvPjwvZz48ZyBjbGFzcz0iZW50aXR5IiBkYXRhLWVudGl0eT0iQ29udHJvbGxlciIgZGF0YS1zb3VyY2UtbGluZT0iNiIgZGF0YS11aWQ9ImVudDAwMDQiIGlkPSJlbnRpdHlfQ29udHJvbGxlciI+PHJlY3QgZmlsbD0iI0YxRjFGMSIgaGVpZ2h0PSIzNC45ODQ0IiByeD0iMi41IiByeT0iMi41IiBzdHlsZT0ic3Ryb2tlOiMxODE4MTg7c3Ryb2tlLXdpZHRoOjAuNTsiIHdpZHRoPSI4NCIgeD0iMzkwLjg2IiB5PSIyNjcuNzM0NCIvPjx0ZXh0IGZpbGw9IiMwMDAwMDAiIGZvbnQtZmFtaWx5PSJzYW5zLXNlcmlmIiBmb250LXNpemU9IjE0IiBsZW5ndGhBZGp1c3Q9InNwYWNpbmciIHRleHRMZW5ndGg9IjcwIiB4PSIzOTcuODYiIHk9IjI4Mi45Njg4Ij5Db250cm9sbGVyPC90ZXh0PjxsaW5lIHN0eWxlPSJzdHJva2U6IzE4MTgxODtzdHJva2Utd2lkdGg6MC41OyIgeDE9IjM5MS44NiIgeDI9IjQ3My44NiIgeTE9IjI4Ni43MTg4IiB5Mj0iMjg2LjcxODgiLz48L2c+PGcgY2xhc3M9ImVudGl0eSIgZGF0YS1lbnRpdHk9IlNlcnZpY2UiIGRhdGEtc291cmNlLWxpbmU9IjciIGRhdGEtdWlkPSJlbnQwMDA1IiBpZD0iZW50aXR5X1NlcnZpY2UiPjxyZWN0IGZpbGw9IiNGMUYxRjEiIGhlaWdodD0iMzQuOTg0NCIgcng9IjIuNSIgcnk9IjIuNSIgc3R5bGU9InN0cm9rZTojMTgxODE4O3N0cm9rZS13aWR0aDowLjU7IiB3aWR0aD0iNjMiIHg9IjQwMS4zNiIgeT0iMTU3LjczNDQiLz48dGV4dCBmaWxsPSIjMDAwMDAwIiBmb250LWZhbWlseT0ic2Fucy1zZXJpZiIgZm9udC1zaXplPSIxNCIgbGVuZ3RoQWRqdXN0PSJzcGFjaW5nIiB0ZXh0TGVuZ3RoPSI0OSIgeD0iNDA4LjM2IiB5PSIxNzIuOTY4OCI+U2VydmljZTwvdGV4dD48bGluZSBzdHlsZT0ic3Ryb2tlOiMxODE4MTg7c3Ryb2tlLXdpZHRoOjAuNTsiIHgxPSI0MDIuMzYiIHgyPSI0NjMuMzYiIHkxPSIxNzYuNzE4OCIgeTI9IjE3Ni43MTg4Ii8+PC9nPjxnIGNsYXNzPSJlbnRpdHkiIGRhdGEtZW50aXR5PSJSZXBvc2l0b3J5IiBkYXRhLXNvdXJjZS1saW5lPSI4IiBkYXRhLXVpZD0iZW50MDAwNiIgaWQ9ImVudGl0eV9SZXBvc2l0b3J5Ij48cmVjdCBmaWxsPSIjRjFGMUYxIiBoZWlnaHQ9IjM0Ljk4NDQiIHJ4PSIyLjUiIHJ5PSIyLjUiIHN0eWxlPSJzdHJva2U6IzE4MTgxODtzdHJva2Utd2lkdGg6MC41OyIgd2lkdGg9Ijg0IiB4PSIzOTAuODYiIHk9IjQ3LjczNDQiLz48dGV4dCBmaWxsPSIjMDAwMDAwIiBmb250LWZhbWlseT0ic2Fucy1zZXJpZiIgZm9udC1zaXplPSIxNCIgbGVuZ3RoQWRqdXN0PSJzcGFjaW5nIiB0ZXh0TGVuZ3RoPSI3MCIgeD0iMzk3Ljg2IiB5PSI2Mi45Njg4Ij5SZXBvc2l0b3J5PC90ZXh0PjxsaW5lIHN0eWxlPSJzdHJva2U6IzE4MTgxODtzdHJva2Utd2lkdGg6MC41OyIgeDE9IjM5MS44NiIgeDI9IjQ3My44NiIgeTE9IjY2LjcxODgiIHkyPSI2Ni43MTg4Ii8+PC9nPjxnIGNsYXNzPSJlbnRpdHkiIGRhdGEtZW50aXR5PSJCRCIgZGF0YS1zb3VyY2UtbGluZT0iOSIgZGF0YS11aWQ9ImVudDAwMDciIGlkPSJlbnRpdHlfQkQiPjxyZWN0IGZpbGw9IiNGMUYxRjEiIGhlaWdodD0iMzQuOTg0NCIgcng9IjIuNSIgcnk9IjIuNSIgc3R5bGU9InN0cm9rZTojMTgxODE4O3N0cm9rZS13aWR0aDowLjU7IiB3aWR0aD0iMjgiIHg9IjE0My44NiIgeT0iNDcuNzM0NCIvPjx0ZXh0IGZpbGw9IiMwMDAwMDAiIGZvbnQtZmFtaWx5PSJzYW5zLXNlcmlmIiBmb250LXNpemU9IjE0IiBsZW5ndGhBZGp1c3Q9InNwYWNpbmciIHRleHRMZW5ndGg9IjE0IiB4PSIxNTAuODYiIHk9IjYyLjk2ODgiPkJEPC90ZXh0PjxsaW5lIHN0eWxlPSJzdHJva2U6IzE4MTgxODtzdHJva2Utd2lkdGg6MC41OyIgeDE9IjE0NC44NiIgeDI9IjE3MC44NiIgeTE9IjY2LjcxODgiIHkyPSI2Ni43MTg4Ii8+PC9nPjxnIGNsYXNzPSJlbnRpdHkiIGRhdGEtZW50aXR5PSJFbnJpcXVlY2ltZW50byIgZGF0YS1zb3VyY2UtbGluZT0iMTAiIGRhdGEtdWlkPSJlbnQwMDA4IiBpZD0iZW50aXR5X0VucmlxdWVjaW1lbnRvIj48cmVjdCBmaWxsPSIjRjFGMUYxIiBoZWlnaHQ9IjM0Ljk4NDQiIHJ4PSIyLjUiIHJ5PSIyLjUiIHN0eWxlPSJzdHJva2U6IzE4MTgxODtzdHJva2Utd2lkdGg6MC41OyIgd2lkdGg9IjExMiIgeD0iNzI3Ljg2IiB5PSIxNTcuNzM0NCIvPjx0ZXh0IGZpbGw9IiMwMDAwMDAiIGZvbnQtZmFtaWx5PSJzYW5zLXNlcmlmIiBmb250LXNpemU9IjE0IiBsZW5ndGhBZGp1c3Q9InNwYWNpbmciIHRleHRMZW5ndGg9Ijk4IiB4PSI3MzQuODYiIHk9IjE3Mi45Njg4Ij5FbnJpcXVlY2ltZW50bzwvdGV4dD48bGluZSBzdHlsZT0ic3Ryb2tlOiMxODE4MTg7c3Ryb2tlLXdpZHRoOjAuNTsiIHgxPSI3MjguODYiIHgyPSI4MzguODYiIHkxPSIxNzYuNzE4OCIgeTI9IjE3Ni43MTg4Ii8+PC9nPjwhLS1saW5rIFVJIHRvIFVzdWFyaW8tLT48IS0tbGluayBVc3VhcmlvIHRvIFVJLS0+PGcgY2xhc3M9ImxpbmsiIGRhdGEtZW50aXR5LTE9IlVzdWFyaW8iIGRhdGEtZW50aXR5LTI9IlVJIiBkYXRhLXNvdXJjZS1saW5lPSIyMyIgZGF0YS11aWQ9ImxuazE3IiBpZD0ibGlua19Vc3VhcmlvX1VJIj48cGF0aCBjb2RlTGluZT0iMjMiIGQ9Ik00NjQuNTIsNTAzLjEyNDQgQzUyMC4wMSw1MDAuMDA0NCA2MjUuODUsNDg4LjA5NDQgNTkxLjg2LDQ0Mi43MzQ0IEM1NzQuMTMsNDE5LjA4NDQgNDg4LjM0NTIsNDA0LjMyMzggNDUyLjg0NTIsMzk5LjA2MzgiIGZpbGw9Im5vbmUiIGlkPSJVc3VhcmlvLXRvLVVJIiBzdHlsZT0ic3Ryb2tlOiMxODE4MTg7c3Ryb2tlLXdpZHRoOjE7Ii8+PHBvbHlnb24gZmlsbD0iIzE4MTgxOCIgcG9pbnRzPSI0NDYuOTEsMzk4LjE4NDQsNDU1LjIyNjUsNDAzLjQ2MDMsNDUxLjg1NiwzOTguOTE3Miw0NTYuMzk5MSwzOTUuNTQ2Nyw0NDYuOTEsMzk4LjE4NDQiIHN0eWxlPSJzdHJva2U6IzE4MTgxODtzdHJva2Utd2lkdGg6MTsiLz48dGV4dCBmaWxsPSIjMDAwMDAwIiBmb250LWZhbWlseT0ic2Fucy1zZXJpZiIgZm9udC1zaXplPSIxMyIgZm9udC13ZWlnaHQ9ImJvbGQiIGxlbmd0aEFkanVzdD0ic3BhY2luZyIgdGV4dExlbmd0aD0iMTU2IiB4PSI1OTkuODYiIHk9IjQ1Ni4wMjM0Ij4xOiBpbmljaWFyQnVzY2EoZmlsdHJvcyk8L3RleHQ+PC9nPjwhLS1saW5rIFVJIHRvIFVzdWFyaW8tLT48ZyBjbGFzcz0ibGluayIgZGF0YS1lbnRpdHktMT0iVUkiIGRhdGEtZW50aXR5LTI9IlVzdWFyaW8iIGRhdGEtc291cmNlLWxpbmU9IjM5IiBkYXRhLXVpZD0ibG5rMjkiIGlkPSJsaW5rX1VJX1VzdWFyaW8iPjxwYXRoIGNvZGVMaW5lPSIzOSIgZD0iTTQxOC41OCwzOTYuNjU0NCBDMzcwLjYzLDM5OC4zNzQ0IDIxNi43NCw0MDYuNjc0NCAxODYuODYsNDQyLjczNDQgQzE4Mi42LDQ0Ny44NjQ0IDE4Mi42LDQ1Mi42MDQ0IDE4Ni44Niw0NTcuNzM0NCBDMjEzLjc2LDQ5MC4xOTQ0IDMzNS4xNjcxLDQ5OS44NzMzIDM5NS4yOTcxLDUwMi43OTMzIiBmaWxsPSJub25lIiBpZD0iVUktdG8tVXN1YXJpbyIgc3R5bGU9InN0cm9rZTojMTgxODE4O3N0cm9rZS13aWR0aDoxOyIvPjxwb2x5Z29uIGZpbGw9IiMxODE4MTgiIHBvaW50cz0iNDAxLjI5LDUwMy4wODQ0LDM5Mi40OTQ2LDQ5OC42NTI1LDM5Ni4yOTU5LDUwMi44NDE5LDM5Mi4xMDY2LDUwNi42NDMxLDQwMS4yOSw1MDMuMDg0NCIgc3R5bGU9InN0cm9rZTojMTgxODE4O3N0cm9rZS13aWR0aDoxOyIvPjx0ZXh0IGZpbGw9IiMwMDAwMDAiIGZvbnQtZmFtaWx5PSJzYW5zLXNlcmlmIiBmb250LXNpemU9IjEzIiBmb250LXdlaWdodD0iYm9sZCIgbGVuZ3RoQWRqdXN0PSJzcGFjaW5nIiB0ZXh0TGVuZ3RoPSIyMDEuNSIgeD0iMTg3Ljg2IiB5PSI0NTYuMDIzNCI+MS45OiBWaXN1YWxpemFyIExpc3RhIFVuaWZpY2FkYTwvdGV4dD48L2c+PCEtLWxpbmsgVXN1YXJpbyB0byBVSS0tPjxnIGNsYXNzPSJsaW5rIiBkYXRhLWVudGl0eS0xPSJVc3VhcmlvIiBkYXRhLWVudGl0eS0yPSJVSSIgZGF0YS1zb3VyY2UtbGluZT0iNDMiIGRhdGEtdWlkPSJsbmszMCIgaWQ9ImxpbmtfVXN1YXJpb19VSSI+PHBhdGggY29kZUxpbmU9IjQzIiBkPSJNNDY0LjM5LDUwNC44MTQ0IEM1MzkuNTgsNTA1LjQzNDQgNzI2LjA0LDUwMi4zNjQ0IDc2NC44Niw0NTcuNzM0NCBDODA4LjMzLDQwNy43NTQ0IDUyMi4yOTg0LDM5OC4yMzE3IDQ1My4yNTg0LDM5Ni42NTE3IiBmaWxsPSJub25lIiBpZD0iVXN1YXJpby10by1VSS0xIiBzdHlsZT0ic3Ryb2tlOiMxODE4MTg7c3Ryb2tlLXdpZHRoOjE7Ii8+PHBvbHlnb24gZmlsbD0iIzE4MTgxOCIgcG9pbnRzPSI0NDcuMjYsMzk2LjUxNDQsNDU2LjE2NjEsNDAwLjcxOTIsNDUyLjI1ODcsMzk2LjYyODgsNDU2LjM0OTIsMzkyLjcyMTMsNDQ3LjI2LDM5Ni41MTQ0IiBzdHlsZT0ic3Ryb2tlOiMxODE4MTg7c3Ryb2tlLXdpZHRoOjE7Ii8+PHRleHQgZmlsbD0iIzAwMDAwMCIgZm9udC1mYW1pbHk9InNhbnMtc2VyaWYiIGZvbnQtc2l6ZT0iMTMiIGZvbnQtd2VpZ2h0PSJib2xkIiBsZW5ndGhBZGp1c3Q9InNwYWNpbmciIHRleHRMZW5ndGg9IjE0MyIgeD0iNzY5Ljg2IiB5PSI0NTYuMDIzNCI+MjogY2xpY2FyTm9BbnVuY2lvKGlkKTwvdGV4dD48L2c+PCEtLWxpbmsgVUkgdG8gVXN1YXJpby0tPjxnIGNsYXNzPSJsaW5rIiBkYXRhLWVudGl0eS0xPSJVSSIgZGF0YS1lbnRpdHktMj0iVXN1YXJpbyIgZGF0YS1zb3VyY2UtbGluZT0iNTAiIGRhdGEtdWlkPSJsbmszNyIgaWQ9ImxpbmtfVUlfVXN1YXJpbyI+PHBhdGggY29kZUxpbmU9IjUwIiBkPSJNNDI5LjI1LDQxMi45MDQ0IEM0MjcsNDI1LjI2NDQgNDI0LjcyLDQ0Mi41MTQ0IDQyNS44Niw0NTcuNzM0NCBDNDI2LjYsNDY3LjY2NDQgNDI3LjIxNCw0NzIuNzc5MyA0MjguNzE0LDQ4MS41OTkzIiBmaWxsPSJub25lIiBpZD0iVUktdG8tVXN1YXJpby0xIiBzdHlsZT0ic3Ryb2tlOiMxODE4MTg7c3Ryb2tlLXdpZHRoOjE7Ii8+PHBvbHlnb24gZmlsbD0iIzE4MTgxOCIgcG9pbnRzPSI0MjkuNzIsNDg3LjUxNDQsNDMyLjE1NDQsNDc3Ljk3MTEsNDI4Ljg4MTcsNDgyLjU4NTIsNDI0LjI2NzcsNDc5LjMxMjQsNDI5LjcyLDQ4Ny41MTQ0IiBzdHlsZT0ic3Ryb2tlOiMxODE4MTg7c3Ryb2tlLXdpZHRoOjE7Ii8+PHRleHQgZmlsbD0iIzAwMDAwMCIgZm9udC1mYW1pbHk9InNhbnMtc2VyaWYiIGZvbnQtc2l6ZT0iMTMiIGZvbnQtd2VpZ2h0PSJib2xkIiBsZW5ndGhBZGp1c3Q9InNwYWNpbmciIHRleHRMZW5ndGg9IjE1NiIgeD0iNDI2Ljg2IiB5PSI0NTYuMDIzNCI+Mi43OiBWaXN1YWxpemFyIERldGFsaGVzPC90ZXh0PjwvZz48IS0tbGluayBVSSB0byBDb250cm9sbGVyLS0+PCEtLWxpbmsgVUkgdG8gQ29udHJvbGxlci0tPjxnIGNsYXNzPSJsaW5rIiBkYXRhLWVudGl0eS0xPSJVSSIgZGF0YS1lbnRpdHktMj0iQ29udHJvbGxlciIgZGF0YS1zb3VyY2UtbGluZT0iMjQiIGRhdGEtdWlkPSJsbmsxOCIgaWQ9ImxpbmtfVUlfQ29udHJvbGxlciI+PHBhdGggY29kZUxpbmU9IjI0IiBkPSJNNDMxLjMxLDM3Ny41MzQ0IEM0MzAuMzQsMzY1LjE2NDQgNDI5LjM3LDM0Ny45MDQ0IDQyOS44NiwzMzIuNzM0NCBDNDMwLjE3LDMyMi44NzQ0IDQzMC40MzYzLDMxNy44Mjg3IDQzMS4wNzYzLDMwOC45OTg3IiBmaWxsPSJub25lIiBpZD0iVUktdG8tQ29udHJvbGxlciIgc3R5bGU9InN0cm9rZTojMTgxODE4O3N0cm9rZS13aWR0aDoxOyIvPjxwb2x5Z29uIGZpbGw9IiMxODE4MTgiIHBvaW50cz0iNDMxLjUxLDMwMy4wMTQ0LDQyNi44Njk5LDMxMS43MDE3LDQzMS4xNDg1LDMwOC4wMDEzLDQzNC44NDg5LDMxMi4yOCw0MzEuNTEsMzAzLjAxNDQiIHN0eWxlPSJzdHJva2U6IzE4MTgxODtzdHJva2Utd2lkdGg6MTsiLz48dGV4dCBmaWxsPSIjMDAwMDAwIiBmb250LWZhbWlseT0ic2Fucy1zZXJpZiIgZm9udC1zaXplPSIxMyIgZm9udC13ZWlnaHQ9ImJvbGQiIGxlbmd0aEFkanVzdD0ic3BhY2luZyIgdGV4dExlbmd0aD0iMTMwIiB4PSI0MzAuODYiIHk9IjM0Ni4wMjM0Ij4xLjE6IGJ1c2NhcihmaWx0cm9zKTwvdGV4dD48L2c+PCEtLWxpbmsgQ29udHJvbGxlciB0byBVSS0tPjxnIGNsYXNzPSJsaW5rIiBkYXRhLWVudGl0eS0xPSJDb250cm9sbGVyIiBkYXRhLWVudGl0eS0yPSJVSSIgZGF0YS1zb3VyY2UtbGluZT0iMzgiIGRhdGEtdWlkPSJsbmsyOCIgaWQ9ImxpbmtfQ29udHJvbGxlcl9VSSI+PHBhdGggY29kZUxpbmU9IjM4IiBkPSJNNDc0Ljg5LDI4NS42MjQ0IEM1NTUuNDQsMjg1LjQ0NDQgNzI2Ljg4LDI5MC4xOTQ0IDc2My44NiwzMzIuNzM0NCBDODA3LjE5LDM4Mi41ODQ0IDUyMi4wNDg0LDM5Mi4yMDQxIDQ1My4yMDg0LDM5My44MTQxIiBmaWxsPSJub25lIiBpZD0iQ29udHJvbGxlci10by1VSSIgc3R5bGU9InN0cm9rZTojMTgxODE4O3N0cm9rZS13aWR0aDoxOyIvPjxwb2x5Z29uIGZpbGw9IiMxODE4MTgiIHBvaW50cz0iNDQ3LjIxLDM5My45NTQ0LDQ1Ni4zMDExLDM5Ny43NDI5LDQ1Mi4yMDg2LDM5My44Mzc1LDQ1Ni4xMTQsMzg5Ljc0NSw0NDcuMjEsMzkzLjk1NDQiIHN0eWxlPSJzdHJva2U6IzE4MTgxODtzdHJva2Utd2lkdGg6MTsiLz48dGV4dCBmaWxsPSIjMDAwMDAwIiBmb250LWZhbWlseT0ic2Fucy1zZXJpZiIgZm9udC1zaXplPSIxMyIgZm9udC13ZWlnaHQ9ImJvbGQiIGxlbmd0aEFkanVzdD0ic3BhY2luZyIgdGV4dExlbmd0aD0iMTQ5LjUiIHg9Ijc2OC44NiIgeT0iMzQ2LjAyMzQiPjEuODogZXhpYmlyUmVzdWx0YWRvcygpPC90ZXh0PjwvZz48IS0tbGluayBVSSB0byBDb250cm9sbGVyLS0+PGcgY2xhc3M9ImxpbmsiIGRhdGEtZW50aXR5LTE9IlVJIiBkYXRhLWVudGl0eS0yPSJDb250cm9sbGVyIiBkYXRhLXNvdXJjZS1saW5lPSI0NCIgZGF0YS11aWQ9ImxuazMxIiBpZD0ibGlua19VSV9Db250cm9sbGVyIj48cGF0aCBjb2RlTGluZT0iNDQiIGQ9Ik00NDYuOSwzOTMuMjM0NCBDNDg2Ljk1LDM4OS44MzQ0IDU5Ni44NSwzNzYuNDA0NCA1NjUuODYsMzMyLjczNDQgQzU0NS40LDMwMy45MTQ0IDUxMS42MDQ3LDI5My42MjY5IDQ4MC44NzQ3LDI4OS40MjY5IiBmaWxsPSJub25lIiBpZD0iVUktdG8tQ29udHJvbGxlci0xIiBzdHlsZT0ic3Ryb2tlOiMxODE4MTg7c3Ryb2tlLXdpZHRoOjE7Ii8+PHBvbHlnb24gZmlsbD0iIzE4MTgxOCIgcG9pbnRzPSI0NzQuOTMsMjg4LjYxNDQsNDgzLjMwNTQsMjkzLjc5NjMsNDc5Ljg4MzksMjg5LjI5MTUsNDg0LjM4ODgsMjg1Ljg3LDQ3NC45MywyODguNjE0NCIgc3R5bGU9InN0cm9rZTojMTgxODE4O3N0cm9rZS13aWR0aDoxOyIvPjx0ZXh0IGZpbGw9IiMwMDAwMDAiIGZvbnQtZmFtaWx5PSJzYW5zLXNlcmlmIiBmb250LXNpemU9IjEzIiBmb250LXdlaWdodD0iYm9sZCIgbGVuZ3RoQWRqdXN0PSJzcGFjaW5nIiB0ZXh0TGVuZ3RoPSIxNTYiIHg9IjU3Mi44NiIgeT0iMzQ2LjAyMzQiPjIuMTogYWNlc3NhckRldGFsaGVzKGlkKTwvdGV4dD48L2c+PCEtLWxpbmsgQ29udHJvbGxlciB0byBVSS0tPjxnIGNsYXNzPSJsaW5rIiBkYXRhLWVudGl0eS0xPSJDb250cm9sbGVyIiBkYXRhLWVudGl0eS0yPSJVSSIgZGF0YS1zb3VyY2UtbGluZT0iNDkiIGRhdGEtdWlkPSJsbmszNiIgaWQ9ImxpbmtfQ29udHJvbGxlcl9VSSI+PHBhdGggY29kZUxpbmU9IjQ5IiBkPSJNMzkwLjg1LDI4OS40OTQ0IEMzMzUuOTUsMjk0LjczNDQgMjQ0LjM4LDMwNy4xNDQ0IDIyMy44NiwzMzIuNzM0NCBDMjE5LjY5LDMzNy45MzQ0IDIxOS42OSwzNDIuNTM0NCAyMjMuODYsMzQ3LjczNDQgQzI0OC41MSwzNzguNDc0NCAzNjkuNjc1NywzODkuNzYgNDEyLjY1NTcsMzkyLjg4IiBmaWxsPSJub25lIiBpZD0iQ29udHJvbGxlci10by1VSS0xIiBzdHlsZT0ic3Ryb2tlOiMxODE4MTg7c3Ryb2tlLXdpZHRoOjE7Ii8+PHBvbHlnb24gZmlsbD0iIzE4MTgxOCIgcG9pbnRzPSI0MTguNjQsMzkzLjMxNDQsNDA5Ljk1MzIsMzg4LjY3MzMsNDEzLjY1MzEsMzkyLjk1MjQsNDA5LjM3NCwzOTYuNjUyMyw0MTguNjQsMzkzLjMxNDQiIHN0eWxlPSJzdHJva2U6IzE4MTgxODtzdHJva2Utd2lkdGg6MTsiLz48dGV4dCBmaWxsPSIjMDAwMDAwIiBmb250LWZhbWlseT0ic2Fucy1zZXJpZiIgZm9udC1zaXplPSIxMyIgZm9udC13ZWlnaHQ9ImJvbGQiIGxlbmd0aEFkanVzdD0ic3BhY2luZyIgdGV4dExlbmd0aD0iMTYyLjUiIHg9IjIyNC44NiIgeT0iMzQ2LjAyMzQiPjIuNjogZXhpYmlyVGVsYURldGFsaGVzKCk8L3RleHQ+PC9nPjwhLS1saW5rIENvbnRyb2xsZXIgdG8gU2VydmljZS0tPjwhLS1saW5rIENvbnRyb2xsZXIgdG8gU2VydmljZS0tPjxnIGNsYXNzPSJsaW5rIiBkYXRhLWVudGl0eS0xPSJDb250cm9sbGVyIiBkYXRhLWVudGl0eS0yPSJTZXJ2aWNlIiBkYXRhLXNvdXJjZS1saW5lPSIyNSIgZGF0YS11aWQ9ImxuazE5IiBpZD0ibGlua19Db250cm9sbGVyX1NlcnZpY2UiPjxwYXRoIGNvZGVMaW5lPSIyNSIgZD0iTTQ0Mi43NSwyNjcuNTE0NCBDNDQ4LjgyLDI1NS4yODQ0IDQ1NC44OSwyMzguMTk0NCA0NTEuODYsMjIyLjczNDQgQzQ0OS44NCwyMTIuNDY0NCA0NDguMDYwNywyMDcuMDQ5MiA0NDQuMDYwNywxOTguNDA5MiIgZmlsbD0ibm9uZSIgaWQ9IkNvbnRyb2xsZXItdG8tU2VydmljZSIgc3R5bGU9InN0cm9rZTojMTgxODE4O3N0cm9rZS13aWR0aDoxOyIvPjxwb2x5Z29uIGZpbGw9IiMxODE4MTgiIHBvaW50cz0iNDQxLjU0LDE5Mi45NjQ0LDQ0MS42OTEyLDIwMi44MTIxLDQ0My42NDA2LDE5Ny41MDE3LDQ0OC45NTEsMTk5LjQ1MTEsNDQxLjU0LDE5Mi45NjQ0IiBzdHlsZT0ic3Ryb2tlOiMxODE4MTg7c3Ryb2tlLXdpZHRoOjE7Ii8+PHRleHQgZmlsbD0iIzAwMDAwMCIgZm9udC1mYW1pbHk9InNhbnMtc2VyaWYiIGZvbnQtc2l6ZT0iMTMiIGZvbnQtd2VpZ2h0PSJib2xkIiBsZW5ndGhBZGp1c3Q9InNwYWNpbmciIHRleHRMZW5ndGg9IjE4MiIgeD0iNDUzLjg2IiB5PSIyMzYuMDIzNCI+MS4yOiBwcm9jZXNzYXJCdXNjYShmaWx0cm9zKTwvdGV4dD48L2c+PCEtLWxpbmsgU2VydmljZSB0byBDb250cm9sbGVyLS0+PGcgY2xhc3M9ImxpbmsiIGRhdGEtZW50aXR5LTE9IlNlcnZpY2UiIGRhdGEtZW50aXR5LTI9IkNvbnRyb2xsZXIiIGRhdGEtc291cmNlLWxpbmU9IjM3IiBkYXRhLXVpZD0ibG5rMjciIGlkPSJsaW5rX1NlcnZpY2VfQ29udHJvbGxlciI+PHBhdGggY29kZUxpbmU9IjM3IiBkPSJNNDAxLjA3LDE3Ny43NDQ0IEMzMTMuNywxODIuMjA0NCA3NC45MSwxOTYuNjk0NCA1MS44NiwyMjIuNzM0NCBDNiwyNzQuNTM0NCAyNzYuMDMwNCwyODIuNzE1MiAzODQuNDkwNCwyODMuOTY1MiIgZmlsbD0ibm9uZSIgaWQ9IlNlcnZpY2UtdG8tQ29udHJvbGxlciIgc3R5bGU9InN0cm9rZTojMTgxODE4O3N0cm9rZS13aWR0aDoxOyIvPjxwb2x5Z29uIGZpbGw9IiMxODE4MTgiIHBvaW50cz0iMzkwLjQ5LDI4NC4wMzQ0LDM4MS41MzY3LDI3OS45MzA5LDM4NS40OTAzLDI4My45NzY4LDM4MS40NDQ1LDI4Ny45MzA0LDM5MC40OSwyODQuMDM0NCIgc3R5bGU9InN0cm9rZTojMTgxODE4O3N0cm9rZS13aWR0aDoxOyIvPjx0ZXh0IGZpbGw9IiMwMDAwMDAiIGZvbnQtZmFtaWx5PSJzYW5zLXNlcmlmIiBmb250LXNpemU9IjEzIiBmb250LXdlaWdodD0iYm9sZCIgbGVuZ3RoQWRqdXN0PSJzcGFjaW5nIiB0ZXh0TGVuZ3RoPSIxNjIuNSIgeD0iNTIuODYiIHk9IjIzNi4wMjM0Ij4xLjc6IHJldG9ybmFyUmVzdWx0YWRvcygpPC90ZXh0PjwvZz48IS0tbGluayBDb250cm9sbGVyIHRvIFNlcnZpY2UtLT48ZyBjbGFzcz0ibGluayIgZGF0YS1lbnRpdHktMT0iQ29udHJvbGxlciIgZGF0YS1lbnRpdHktMj0iU2VydmljZSIgZGF0YS1zb3VyY2UtbGluZT0iNDUiIGRhdGEtdWlkPSJsbmszMiIgaWQ9ImxpbmtfQ29udHJvbGxlcl9TZXJ2aWNlIj48cGF0aCBjb2RlTGluZT0iNDUiIGQ9Ik00NzQuOTksMjgxLjEwNDQgQzUzMC42MSwyNzYuMDA0NCA2MjMuOTUsMjYzLjcxNDQgNjQ0Ljg2LDIzNy43MzQ0IEM2NDkuMDQsMjMyLjU0NDQgNjQ5LjA0LDIyNy45MjQ0IDY0NC44NiwyMjIuNzM0NCBDNjIyLjYsMTk1LjA2NDQgNTI0LjE1OTEsMTgzLjQzNDkgNDcwLjYzOTEsMTc4Ljk1NDkiIGZpbGw9Im5vbmUiIGlkPSJDb250cm9sbGVyLXRvLVNlcnZpY2UtMSIgc3R5bGU9InN0cm9rZTojMTgxODE4O3N0cm9rZS13aWR0aDoxOyIvPjxwb2x5Z29uIGZpbGw9IiMxODE4MTgiIHBvaW50cz0iNDY0LjY2LDE3OC40NTQ0LDQ3My4yOTUsMTgzLjE5MTIsNDY5LjY0MjYsMTc4Ljg3MTUsNDczLjk2MjMsMTc1LjIxOTEsNDY0LjY2LDE3OC40NTQ0IiBzdHlsZT0ic3Ryb2tlOiMxODE4MTg7c3Ryb2tlLXdpZHRoOjE7Ii8+PHRleHQgZmlsbD0iIzAwMDAwMCIgZm9udC1mYW1pbHk9InNhbnMtc2VyaWYiIGZvbnQtc2l6ZT0iMTMiIGZvbnQtd2VpZ2h0PSJib2xkIiBsZW5ndGhBZGp1c3Q9InNwYWNpbmciIHRleHRMZW5ndGg9IjIwMS41IiB4PSI2NDguODYiIHk9IjIzNi4wMjM0Ij4yLjI6IG9idGVyRGV0YWxoZXNDb21wbGV0b3MoaWQpPC90ZXh0PjwvZz48IS0tbGluayBTZXJ2aWNlIHRvIENvbnRyb2xsZXItLT48ZyBjbGFzcz0ibGluayIgZGF0YS1lbnRpdHktMT0iU2VydmljZSIgZGF0YS1lbnRpdHktMj0iQ29udHJvbGxlciIgZGF0YS1zb3VyY2UtbGluZT0iNDgiIGRhdGEtdWlkPSJsbmszNSIgaWQ9ImxpbmtfU2VydmljZV9Db250cm9sbGVyIj48cGF0aCBjb2RlTGluZT0iNDgiIGQ9Ik00MDEuMTQsMTgwLjk2NDQgQzM1OS4yOSwxODcuOTM0NCAyODkuMTIsMjAyLjM2NDQgMjczLjg2LDIyMi43MzQ0IEMyNDEuOTEsMjY1LjM2NDQgMzI3LjUwNDcsMjc4LjAzNDggMzg0LjcwNDcsMjgyLjA0NDgiIGZpbGw9Im5vbmUiIGlkPSJTZXJ2aWNlLXRvLUNvbnRyb2xsZXItMSIgc3R5bGU9InN0cm9rZTojMTgxODE4O3N0cm9rZS13aWR0aDoxOyIvPjxwb2x5Z29uIGZpbGw9IiMxODE4MTgiIHBvaW50cz0iMzkwLjY5LDI4Mi40NjQ0LDM4MS45OTE4LDI3Ny44NDQ4LDM4NS43MDIyLDI4Mi4xMTQ3LDM4MS40MzIzLDI4NS44MjUyLDM5MC42OSwyODIuNDY0NCIgc3R5bGU9InN0cm9rZTojMTgxODE4O3N0cm9rZS13aWR0aDoxOyIvPjx0ZXh0IGZpbGw9IiMwMDAwMDAiIGZvbnQtZmFtaWx5PSJzYW5zLXNlcmlmIiBmb250LXNpemU9IjEzIiBmb250LXdlaWdodD0iYm9sZCIgbGVuZ3RoQWRqdXN0PSJzcGFjaW5nIiB0ZXh0TGVuZ3RoPSIxNDkuNSIgeD0iMjc0Ljg2IiB5PSIyMzYuMDIzNCI+Mi41OiByZXRvcm5hckRldGFsaGVzKCk8L3RleHQ+PC9nPjwhLS1saW5rIFNlcnZpY2UgdG8gUmVwb3NpdG9yeS0tPjwhLS1saW5rIFNlcnZpY2UgdG8gUmVwb3NpdG9yeS0tPjxnIGNsYXNzPSJsaW5rIiBkYXRhLWVudGl0eS0xPSJTZXJ2aWNlIiBkYXRhLWVudGl0eS0yPSJSZXBvc2l0b3J5IiBkYXRhLXNvdXJjZS1saW5lPSIyNiIgZGF0YS11aWQ9ImxuazIwIiBpZD0ibGlua19TZXJ2aWNlX1JlcG9zaXRvcnkiPjxwYXRoIGNvZGVMaW5lPSIyNiIgZD0iTTQ0Mi43NSwxNTcuNTE0NCBDNDQ4LjgyLDE0NS4yODQ0IDQ1NC44OSwxMjguMTk0NCA0NTEuODYsMTEyLjczNDQgQzQ0OS44NCwxMDIuNDY0NCA0NDguMDYwNyw5Ny4wNDkyIDQ0NC4wNjA3LDg4LjQwOTIiIGZpbGw9Im5vbmUiIGlkPSJTZXJ2aWNlLXRvLVJlcG9zaXRvcnkiIHN0eWxlPSJzdHJva2U6IzE4MTgxODtzdHJva2Utd2lkdGg6MTsiLz48cG9seWdvbiBmaWxsPSIjMTgxODE4IiBwb2ludHM9IjQ0MS41NCw4Mi45NjQ0LDQ0MS42OTEyLDkyLjgxMjEsNDQzLjY0MDYsODcuNTAxNyw0NDguOTUxLDg5LjQ1MTEsNDQxLjU0LDgyLjk2NDQiIHN0eWxlPSJzdHJva2U6IzE4MTgxODtzdHJva2Utd2lkdGg6MTsiLz48dGV4dCBmaWxsPSIjMDAwMDAwIiBmb250LWZhbWlseT0ic2Fucy1zZXJpZiIgZm9udC1zaXplPSIxMyIgZm9udC13ZWlnaHQ9ImJvbGQiIGxlbmd0aEFkanVzdD0ic3BhY2luZyIgdGV4dExlbmd0aD0iMjAxLjUiIHg9IjQ1My44NiIgeT0iMTI2LjAyMzQiPjEuMzogY29uc3VsdGFyQW51bmNpb3MoZmlsdHJvcyk8L3RleHQ+PC9nPjwhLS1saW5rIFJlcG9zaXRvcnkgdG8gU2VydmljZS0tPjxnIGNsYXNzPSJsaW5rIiBkYXRhLWVudGl0eS0xPSJSZXBvc2l0b3J5IiBkYXRhLWVudGl0eS0yPSJTZXJ2aWNlIiBkYXRhLXNvdXJjZS1saW5lPSIyOSIgZGF0YS11aWQ9ImxuazIzIiBpZD0ibGlua19SZXBvc2l0b3J5X1NlcnZpY2UiPjxwYXRoIGNvZGVMaW5lPSIyOSIgZD0iTTM5MC43OSw2OC40NjQ0IEMyOTguNzgsNzMuNzg0NCA4Ni4xNSw4OC41ODQ0IDY0Ljg2LDExMi43MzQ0IEMxOS4yNCwxNjQuNDg0NCAyOTguMjkwNSwxNzIuNjE0IDM5NS4zNDA1LDE3My45MTQiIGZpbGw9Im5vbmUiIGlkPSJSZXBvc2l0b3J5LXRvLVNlcnZpY2UiIHN0eWxlPSJzdHJva2U6IzE4MTgxODtzdHJva2Utd2lkdGg6MTsiLz48cG9seWdvbiBmaWxsPSIjMTgxODE4IiBwb2ludHM9IjQwMS4zNCwxNzMuOTk0NCwzOTIuMzk0NCwxNjkuODc0MiwzOTYuMzQwNCwxNzMuOTI3NCwzOTIuMjg3MiwxNzcuODczNSw0MDEuMzQsMTczLjk5NDQiIHN0eWxlPSJzdHJva2U6IzE4MTgxODtzdHJva2Utd2lkdGg6MTsiLz48dGV4dCBmaWxsPSIjMDAwMDAwIiBmb250LWZhbWlseT0ic2Fucy1zZXJpZiIgZm9udC1zaXplPSIxMyIgZm9udC13ZWlnaHQ9ImJvbGQiIGxlbmd0aEFkanVzdD0ic3BhY2luZyIgdGV4dExlbmd0aD0iMTQ5LjUiIHg9IjY1Ljg2IiB5PSIxMjYuMDIzNCI+MS40OiByZXRvcm5hckFudW5jaW9zKCk8L3RleHQ+PC9nPjwhLS1saW5rIFNlcnZpY2UgdG8gUmVwb3NpdG9yeS0tPjxnIGNsYXNzPSJsaW5rIiBkYXRhLWVudGl0eS0xPSJTZXJ2aWNlIiBkYXRhLWVudGl0eS0yPSJSZXBvc2l0b3J5IiBkYXRhLXNvdXJjZS1saW5lPSI0NiIgZGF0YS11aWQ9ImxuazMzIiBpZD0ibGlua19TZXJ2aWNlX1JlcG9zaXRvcnkiPjxwYXRoIGNvZGVMaW5lPSI0NiIgZD0iTTQ2NC43MywxNzIuNjM0NCBDNTIyLjA5LDE2OS4wMjQ0IDYzOS4wNCwxNTguMDQ0NCA2NjMuODYsMTI3LjczNDQgQzY2OC4wOCwxMjIuNTc0NCA2NjguMDgsMTE3Ljg5NDQgNjYzLjg2LDExMi43MzQ0IEM2NDAuNDcsODQuMTY0NCA1NDEuMjA1MSw3My4xODcgNDgxLjE2NTEsNjguOTQ3IiBmaWxsPSJub25lIiBpZD0iU2VydmljZS10by1SZXBvc2l0b3J5LTEiIHN0eWxlPSJzdHJva2U6IzE4MTgxODtzdHJva2Utd2lkdGg6MTsiLz48cG9seWdvbiBmaWxsPSIjMTgxODE4IiBwb2ludHM9IjQ3NS4xOCw2OC41MjQ0LDQ4My44NzU5LDczLjE0ODQsNDgwLjE2NzYsNjguODc2Niw0ODQuNDM5NCw2NS4xNjgzLDQ3NS4xOCw2OC41MjQ0IiBzdHlsZT0ic3Ryb2tlOiMxODE4MTg7c3Ryb2tlLXdpZHRoOjE7Ii8+PHRleHQgZmlsbD0iIzAwMDAwMCIgZm9udC1mYW1pbHk9InNhbnMtc2VyaWYiIGZvbnQtc2l6ZT0iMTMiIGZvbnQtd2VpZ2h0PSJib2xkIiBsZW5ndGhBZGp1c3Q9InNwYWNpbmciIHRleHRMZW5ndGg9IjE2OSIgeD0iNjY3Ljg2IiB5PSIxMjYuMDIzNCI+Mi4zOiBjb25zdWx0YXJEZXRhbGhlcyhpZCk8L3RleHQ+PC9nPjwhLS1saW5rIFJlcG9zaXRvcnkgdG8gU2VydmljZS0tPjxnIGNsYXNzPSJsaW5rIiBkYXRhLWVudGl0eS0xPSJSZXBvc2l0b3J5IiBkYXRhLWVudGl0eS0yPSJTZXJ2aWNlIiBkYXRhLXNvdXJjZS1saW5lPSI0NyIgZGF0YS11aWQ9ImxuazM0IiBpZD0ibGlua19SZXBvc2l0b3J5X1NlcnZpY2UiPjxwYXRoIGNvZGVMaW5lPSI0NyIgZD0iTTM5MC43Miw3Mi43NjQ0IEMzNDguNTMsODAuMjU0NCAyODcuOTEsOTMuOTc0NCAyNzMuODYsMTEyLjczNDQgQzIzOS44NywxNTguMDk0NCAzMzkuNzA5NSwxNjkuNjY3NSAzOTUuMTk5NSwxNzIuNzg3NSIgZmlsbD0ibm9uZSIgaWQ9IlJlcG9zaXRvcnktdG8tU2VydmljZS0xIiBzdHlsZT0ic3Ryb2tlOiMxODE4MTg7c3Ryb2tlLXdpZHRoOjE7Ii8+PHBvbHlnb24gZmlsbD0iIzE4MTgxOCIgcG9pbnRzPSI0MDEuMTksMTczLjEyNDQsMzkyLjQyODcsMTY4LjYyNTQsMzk2LjE5NzksMTcyLjg0MzcsMzkxLjk3OTYsMTc2LjYxMjgsNDAxLjE5LDE3My4xMjQ0IiBzdHlsZT0ic3Ryb2tlOiMxODE4MTg7c3Ryb2tlLXdpZHRoOjE7Ii8+PHRleHQgZmlsbD0iIzAwMDAwMCIgZm9udC1mYW1pbHk9InNhbnMtc2VyaWYiIGZvbnQtc2l6ZT0iMTMiIGZvbnQtd2VpZ2h0PSJib2xkIiBsZW5ndGhBZGp1c3Q9InNwYWNpbmciIHRleHRMZW5ndGg9IjE0OS41IiB4PSIyNzQuODYiIHk9IjEyNi4wMjM0Ij4yLjQ6IHJldG9ybmFyRGV0YWxoZXMoKTwvdGV4dD48L2c+PCEtLWxpbmsgQkQgdG8gUmVwb3NpdG9yeS0tPjwhLS1saW5rIFJlcG9zaXRvcnkgdG8gQkQtLT48ZyBjbGFzcz0ibGluayIgZGF0YS1lbnRpdHktMT0iUmVwb3NpdG9yeSIgZGF0YS1lbnRpdHktMj0iQkQiIGRhdGEtc291cmNlLWxpbmU9IjI3IiBkYXRhLXVpZD0ibG5rMjEiIGlkPSJsaW5rX1JlcG9zaXRvcnlfQkQiPjxwYXRoIGNvZGVMaW5lPSIyNyIgZD0iTTM5MC41Miw3Ni43MTQ0IEMzNzguNzQsNzkuNDA0NCAzNjUuODgsODEuODg0NCAzNTMuODYsODMuMjM0NCBDMzIxLjg0LDg2LjgzNDQgMjQwLjYyLDg4LjY3NDQgMjA4Ljg2LDgzLjIzNDQgQzE5Ni4wOSw4MS4wNDQ0IDE4Ny43OTQ0LDc4LjMwMTkgMTc3Ljc2NDQsNzQuMTAxOSIgZmlsbD0ibm9uZSIgaWQ9IlJlcG9zaXRvcnktdG8tQkQiIHN0eWxlPSJzdHJva2U6IzE4MTgxODtzdHJva2Utd2lkdGg6MTsiLz48cG9seWdvbiBmaWxsPSIjMTgxODE4IiBwb2ludHM9IjE3Mi4yMyw3MS43ODQ0LDE3OC45ODY2LDc4Ljk1MDIsMTc2Ljg0Miw3My43MTU2LDE4Mi4wNzY1LDcxLjU3MSwxNzIuMjMsNzEuNzg0NCIgc3R5bGU9InN0cm9rZTojMTgxODE4O3N0cm9rZS13aWR0aDoxOyIvPjx0ZXh0IGZpbGw9IiMwMDAwMDAiIGZvbnQtZmFtaWx5PSJzYW5zLXNlcmlmIiBmb250LXNpemU9IjEzIiBmb250LXdlaWdodD0iYm9sZCIgbGVuZ3RoQWRqdXN0PSJzcGFjaW5nIiB0ZXh0TGVuZ3RoPSIxNDMiIHg9IjIwOS44NiIgeT0iODEuNTIzNCI+MS4zLjE6IFNFTEVDVCBBbnVuY2lvczwvdGV4dD48L2c+PCEtLWxpbmsgQkQgdG8gUmVwb3NpdG9yeS0tPjxnIGNsYXNzPSJsaW5rIiBkYXRhLWVudGl0eS0xPSJCRCIgZGF0YS1lbnRpdHktMj0iUmVwb3NpdG9yeSIgZGF0YS1zb3VyY2UtbGluZT0iMjgiIGRhdGEtdWlkPSJsbmsyMiIgaWQ9ImxpbmtfQkRfUmVwb3NpdG9yeSI+PHBhdGggY29kZUxpbmU9IjI4IiBkPSJNMTcxLjg3LDY1LjIzNDQgQzIxMS44OCw2NS4yMzQ0IDMyMS43Niw2NS4yMzQ0IDM4NC44MSw2NS4yMzQ0IiBmaWxsPSJub25lIiBpZD0iQkQtdG8tUmVwb3NpdG9yeSIgc3R5bGU9InN0cm9rZTojMTgxODE4O3N0cm9rZS13aWR0aDoxOyIvPjxwb2x5Z29uIGZpbGw9IiMxODE4MTgiIHBvaW50cz0iMzkwLjgxLDY1LjIzNDQsMzgxLjgxLDYxLjIzNDQsMzg1LjgxLDY1LjIzNDQsMzgxLjgxLDY5LjIzNDQsMzkwLjgxLDY1LjIzNDQiIHN0eWxlPSJzdHJva2U6IzE4MTgxODtzdHJva2Utd2lkdGg6MTsiLz48dGV4dCBmaWxsPSIjMDAwMDAwIiBmb250LWZhbWlseT0ic2Fucy1zZXJpZiIgZm9udC1zaXplPSIxMyIgZm9udC13ZWlnaHQ9ImJvbGQiIGxlbmd0aEFkanVzdD0ic3BhY2luZyIgdGV4dExlbmd0aD0iMTgyIiB4PSIxOTAuMzYiIHk9IjYwLjUyMzQiPjEuMy4yOiByZXRvcm5hckRhZG9zQnJ1dG9zKCk8L3RleHQ+PC9nPjwhLS1saW5rIFNlcnZpY2UgdG8gRW5yaXF1ZWNpbWVudG8tLT48IS0tbGluayBTZXJ2aWNlIHRvIEVucmlxdWVjaW1lbnRvLS0+PGcgY2xhc3M9ImxpbmsiIGRhdGEtZW50aXR5LTE9IlNlcnZpY2UiIGRhdGEtZW50aXR5LTI9IkVucmlxdWVjaW1lbnRvIiBkYXRhLXNvdXJjZS1saW5lPSIzMiIgZGF0YS11aWQ9ImxuazI0IiBpZD0ibGlua19TZXJ2aWNlX0VucmlxdWVjaW1lbnRvIj48cGF0aCBjb2RlTGluZT0iMzIiIGQ9Ik00NjQuNjIsMTc1LjIzNDQgQzUyNC4xOSwxNzUuMjM0NCA2NDcuMzcsMTc1LjIzNDQgNzIxLjg1LDE3NS4yMzQ0IiBmaWxsPSJub25lIiBpZD0iU2VydmljZS10by1FbnJpcXVlY2ltZW50byIgc3R5bGU9InN0cm9rZTojMTgxODE4O3N0cm9rZS13aWR0aDoxOyIvPjxwb2x5Z29uIGZpbGw9IiMxODE4MTgiIHBvaW50cz0iNzI3Ljg1LDE3NS4yMzQ0LDcxOC44NSwxNzEuMjM0NCw3MjIuODUsMTc1LjIzNDQsNzE4Ljg1LDE3OS4yMzQ0LDcyNy44NSwxNzUuMjM0NCIgc3R5bGU9InN0cm9rZTojMTgxODE4O3N0cm9rZS13aWR0aDoxOyIvPjx0ZXh0IGZpbGw9IiMwMDAwMDAiIGZvbnQtZmFtaWx5PSJzYW5zLXNlcmlmIiBmb250LXNpemU9IjEzIiBmb250LXdlaWdodD0iYm9sZCIgbGVuZ3RoQWRqdXN0PSJzcGFjaW5nIiB0ZXh0TGVuZ3RoPSIyMjcuNSIgeD0iNDgyLjYxIiB5PSIxNzAuNTIzNCI+MS41OiBzb2xpY2l0YXJBbmFsaXNlTWVyY2FkbyhsaXN0YSk8L3RleHQ+PC9nPjwhLS1saW5rIEVucmlxdWVjaW1lbnRvIHRvIFNlcnZpY2UtLT48ZyBjbGFzcz0ibGluayIgZGF0YS1lbnRpdHktMT0iRW5yaXF1ZWNpbWVudG8iIGRhdGEtZW50aXR5LTI9IlNlcnZpY2UiIGRhdGEtc291cmNlLWxpbmU9IjM0IiBkYXRhLXVpZD0ibG5rMjYiIGlkPSJsaW5rX0VucmlxdWVjaW1lbnRvX1NlcnZpY2UiPjxwYXRoIGNvZGVMaW5lPSIzNCIgZD0iTTcyNy41OSwxODkuMTY0NCBDNzE4Ljc4LDE5MC44NTQ0IDcwOS43MywxOTIuMzA0NCA3MDEuMTEsMTkzLjIzNDQgQzY1NC43MSwxOTguMjI0NCA1MzcuMjUsMjAwLjIwNDQgNDkxLjExLDE5My4yMzQ0IEM0ODIuMzIsMTkxLjkwNDQgNDc4Ljc1NSwxOTEuMjc3OSA0NzAuMjM1LDE4OC42NTc5IiBmaWxsPSJub25lIiBpZD0iRW5yaXF1ZWNpbWVudG8tdG8tU2VydmljZSIgc3R5bGU9InN0cm9rZTojMTgxODE4O3N0cm9rZS13aWR0aDoxOyIvPjxwb2x5Z29uIGZpbGw9IiMxODE4MTgiIHBvaW50cz0iNDY0LjUsMTg2Ljg5NDQsNDcxLjkyNjcsMTkzLjM2Myw0NjkuMjc5MSwxODguMzY0LDQ3NC4yNzgyLDE4NS43MTY0LDQ2NC41LDE4Ni44OTQ0IiBzdHlsZT0ic3Ryb2tlOiMxODE4MTg7c3Ryb2tlLXdpZHRoOjE7Ii8+PHRleHQgZmlsbD0iIzAwMDAwMCIgZm9udC1mYW1pbHk9InNhbnMtc2VyaWYiIGZvbnQtc2l6ZT0iMTMiIGZvbnQtd2VpZ2h0PSJib2xkIiBsZW5ndGhBZGp1c3Q9InNwYWNpbmciIHRleHRMZW5ndGg9IjIwOCIgeD0iNDkyLjExIiB5PSIxOTEuNTIzNCI+MS42OiByZXRvcm5hckRhZG9zRW5yaXF1ZWNpZG9zKCk8L3RleHQ+PC9nPjwhLS1saW5rIEVucmlxdWVjaW1lbnRvIHRvIEVucmlxdWVjaW1lbnRvLS0+PGcgY2xhc3M9ImxpbmsiIGRhdGEtZW50aXR5LTE9IkVucmlxdWVjaW1lbnRvIiBkYXRhLWVudGl0eS0yPSJFbnJpcXVlY2ltZW50byIgZGF0YS1zb3VyY2UtbGluZT0iMzMiIGRhdGEtdWlkPSJsbmsyNSIgaWQ9ImxpbmtfRW5yaXF1ZWNpbWVudG9fRW5yaXF1ZWNpbWVudG8iPjxwYXRoIGNvZGVMaW5lPSIzMyIgZD0iTTg0MC4yOSwxNjUuMTE0NCBDODU5LjQ1LDE2NS4wNTQ0IDg3NC44NiwxNjguNDM0NCA4NzQuODYsMTc1LjIzNDQgQzg3NC44NiwxODIuMDM0NCA4NjUuNDUsMTg1LjQzMzIgODQ2LjI5LDE4NS4zNzMyIiBmaWxsPSJub25lIiBpZD0iRW5yaXF1ZWNpbWVudG8tdG8tRW5yaXF1ZWNpbWVudG8iIHN0eWxlPSJzdHJva2U6IzE4MTgxODtzdHJva2Utd2lkdGg6MTsiLz48cG9seWdvbiBmaWxsPSIjMTgxODE4IiBwb2ludHM9Ijg0MC4yOSwxODUuMzU0NCw4NDkuMjc3NCwxODkuMzgyNSw4NDUuMjksMTg1LjM3LDg0OS4zMDI1LDE4MS4zODI2LDg0MC4yOSwxODUuMzU0NCIgc3R5bGU9InN0cm9rZTojMTgxODE4O3N0cm9rZS13aWR0aDoxOyIvPjx0ZXh0IGZpbGw9IiMwMDAwMDAiIGZvbnQtZmFtaWx5PSJzYW5zLXNlcmlmIiBmb250LXNpemU9IjEzIiBmb250LXdlaWdodD0iYm9sZCIgbGVuZ3RoQWRqdXN0PSJzcGFjaW5nIiB0ZXh0TGVuZ3RoPSIxNzUuNSIgeD0iODgwLjg2IiB5PSIxODEuMDIzNCI+MS41LjE6IGNhbGN1bGFyRklQRV9NZWRpYSgpPC90ZXh0PjwvZz48IS0tU1JDPVtWTEpCUmppbTRCcHhBX1BNc1FaU01jc0lIZVMyeUlEMFdBR0RhWllOZVlYZVFYc3BlNGNOZWJBZFZyRnFxNUVfbVpfTWZJSEFpbG91STlJdW16dFBjUUtMTFlBQzFOaW9SQ2FXR0haZlBRTzRQdmtfY3B5d1hjNk1TV084NXNocE11ZUtOU1daUmx4bkpFZUtXa2RleFUwcnEzRkFkc1ZUSmtTTFo3NGtiQ1dGVzhJWUZpLSAtZXpMZkh6RVJNdlljNkpEMkx2ek5WWk5Jb1hlajlIaF92bnhEaS0zZUYtem1mTERYak5kblZ1UFpsdmVlOHR2YW9DS0liVE1rWjZsc2VaQ0JSLTJNRzRLcm1PZVAxYWtLMnN0V01MMFhLbG5ZUFFLOGxDY3pzb2FCWFYzQkdZRzlnZ19QQWRKYkpnX2dOdWQtZ1M5Y3ZWTW83VUo5YkVfc1RlRFNsUW8zOUN2andGWmttOHJ1TWoxTWttN0tXSjBDdUw5Y3d2blNlTUdtd0EteFJnREpxbWlfNFlrOGVUU1JuNDNBU1M1QzdYdENYSUdvUVJWTm9xYkpPOERVM2tXSlBFUFlKSkV1c0dHMi1QOEJIMUozb2NZRVFSZWRKU01FTzhxczVDWHRDS2NhcWFuUVBZdktmaFpHUUhGU3g5aXhPM1pzRzVWY19VSHdDZGUwM3dIdXNXX3Q5dDk1NlpBaktTb0M2UGJ1UTNBb1NCMkpmS3RrVk9zaEFkSVdLZXJqYVBtUTluMzJlN3pRUUQ5YXRtZWpaWi05OFRNSTVDZXhtRG40dGczWEw2NTBReWpTZ1hSbXU1Nms5dm45Y2NIY0Jnems5enprQzE0aXM3VjQzaXRKTGRpZ0dEQllrbk9wRnRrM19iZEV6Tm9Od3V3aHBraHB4cDBOdDFfU2lmT3RSbHozM0VZSWpVREJ0dGdwNXk3ZENKcHd3SlRteEplN0tvTmNERmk5Z3drbFBjVUNiaWE1cWVLTjdIaVZDV3FkU1BadmY0bG4wdjRTN2Z4OEFTMkFHVjBQSWkySDBPZ1NEX05DT2VNWEF0aWJ0R3JSV2VfQ0tCR3JHd3NhSHVtVERPclRtVGg5VGxZVDcwM2o1cDVvallmNFY0MzlqWDF4UDhvU0luZW8tbFhVeHB5MF0tLT48L2c+PC9zdmc+;" vertex="1" parent="1">
            <mxGeometry x="-1379" y="-990" width="1069" height="528" as="geometry" />
          </mxCell>
        </UserObject>
        <UserObject label="" plantUmlData="{&quot;data&quot;:&quot;@startuml Comunicacao_GestaoCuradoria\n\ntitle Diagrama de Comunicação: Gestão e Curadoria (UC07, UC08, UC09, UC10)\n\n&#39; Definição dos Objetos\nobject Administrador\nobject InterfaceAdmin\nobject AdminController\nobject AdminService\nobject AnuncioRepository\nobject BancoDeDados\nobject ServicoMonitoramento\n\n&#39; --- Fluxo de Acesso e Monitoramento (1 - 4) ---\n\nAdministrador --&gt; InterfaceAdmin : **1: solicitarAcessoAdmin()**\nInterfaceAdmin --&gt; AdminController : **1.1: solicitarDashboard()**\nAdminController --&gt; AdminService : **2: processarAcao(acao: Moderar ou Monitorar)**\nAdminService --&gt; ServicoMonitoramento : **3: consultarSaudeScrapers()**\nServicoMonitoramento --&gt; AdminService : **4: retornarLogsEStatus()**\n\n&#39; --- Fluxo de Moderação (5 - 10) ---\n\nAdminService --&gt; AnuncioRepository : **5: buscarAnuncioParaValidar(id)**\nAnuncioRepository --&gt; BancoDeDados : **5.1: SELECT Anuncio**\nBancoDeDados --&gt; AnuncioRepository : **5.2: retornarDados()**\nAnuncioRepository --&gt; AdminService : **5.3: retornarAnuncio()**\n\nAdminService --&gt; InterfaceAdmin : **6: exibirAnuncioParaDecisao()**\nInterfaceAdmin --&gt; Administrador : **6.1: aguardaDecisao()**\n\nAdministrador --&gt; InterfaceAdmin : **7: enviarDecisao(Aprovar/Remover)**\nInterfaceAdmin --&gt; AdminService : **7.1: atualizarStatus(id, novoStatus)**\n\nAdminService --&gt; AnuncioRepository : **8: persistirDecisao(id, novoStatus)**\nAnuncioRepository --&gt; BancoDeDados : **8.1: UPDATE Anuncio**\nBancoDeDados --&gt; AnuncioRepository : **8.2: Confirmação()**\nAnuncioRepository --&gt; AdminService : **8.3: Sucesso()**\n\nAdminService --&gt; InterfaceAdmin : **9: confirmarAcao()**\nInterfaceAdmin --&gt; Administrador : **10: exibirNotificacaoFinal()**\n\n@enduml&quot;,&quot;format&quot;:&quot;svg&quot;}" id="lkofwXcr7X9-6kQjYrpD-2">
          <mxCell style="shape=image;noLabel=1;verticalAlign=top;aspect=fixed;imageAspect=0;image=data:image/svg+xml,PHN2ZyB4bWxucz0iaHR0cDovL3d3dy53My5vcmcvMjAwMC9zdmciIHhtbG5zOnhsaW5rPSJodHRwOi8vd3d3LnczLm9yZy8xOTk5L3hsaW5rIiBjb250ZW50U3R5bGVUeXBlPSJ0ZXh0L2NzcyIgZGF0YS1kaWFncmFtLXR5cGU9IkNMQVNTIiBoZWlnaHQ9IjYzM3B4IiBwcmVzZXJ2ZUFzcGVjdFJhdGlvPSJub25lIiBzdHlsZT0id2lkdGg6MTIxNHB4O2hlaWdodDo2MzNweDtiYWNrZ3JvdW5kOiNGRkZGRkY7IiB2ZXJzaW9uPSIxLjEiIHZpZXdCb3g9IjAgMCAxMjE0IDYzMyIgd2lkdGg9IjEyMTRweCIgem9vbUFuZFBhbj0ibWFnbmlmeSI+PHRpdGxlPkRpYWdyYW1hIGRlIENvbXVuaWNhJiMyMzE7JiMyMjc7bzogR2VzdCYjMjI3O28gZSBDdXJhZG9yaWEgKFVDMDcsIFVDMDgsIFVDMDksIFVDMTApPC90aXRsZT48ZGVmcy8+PGc+PHRleHQgZmlsbD0iIzAwMDAwMCIgZm9udC1mYW1pbHk9InNhbnMtc2VyaWYiIGZvbnQtc2l6ZT0iMTQiIGZvbnQtd2VpZ2h0PSJib2xkIiBsZW5ndGhBZGp1c3Q9InNwYWNpbmciIHRleHRMZW5ndGg9IjQ3NiIgeD0iMzYyLjQxNSIgeT0iMjMuMjM0NCI+RGlhZ3JhbWEgZGUgQ29tdW5pY2EmIzIzMTsmIzIyNztvOiBHZXN0JiMyMjc7byBlIEN1cmFkb3JpYSAoVUMwNywgVUMwOCwgVUMwOSwgVUMxMCk8L3RleHQ+PGcgY2xhc3M9ImVudGl0eSIgZGF0YS1lbnRpdHk9IkFkbWluaXN0cmFkb3IiIGRhdGEtc291cmNlLWxpbmU9IjQiIGRhdGEtdWlkPSJlbnQwMDAyIiBpZD0iZW50aXR5X0FkbWluaXN0cmFkb3IiPjxyZWN0IGZpbGw9IiNGMUYxRjEiIGhlaWdodD0iMzQuOTg0NCIgcng9IjIuNSIgcnk9IjIuNSIgc3R5bGU9InN0cm9rZTojMTgxODE4O3N0cm9rZS13aWR0aDowLjU7IiB3aWR0aD0iMTA1IiB4PSI2MDQuMzMiIHk9IjQyLjk4NDQiLz48dGV4dCBmaWxsPSIjMDAwMDAwIiBmb250LWZhbWlseT0ic2Fucy1zZXJpZiIgZm9udC1zaXplPSIxNCIgbGVuZ3RoQWRqdXN0PSJzcGFjaW5nIiB0ZXh0TGVuZ3RoPSI5MSIgeD0iNjExLjMzIiB5PSI1OC4yMTg4Ij5BZG1pbmlzdHJhZG9yPC90ZXh0PjxsaW5lIHN0eWxlPSJzdHJva2U6IzE4MTgxODtzdHJva2Utd2lkdGg6MC41OyIgeDE9IjYwNS4zMyIgeDI9IjcwOC4zMyIgeTE9IjYxLjk2ODgiIHkyPSI2MS45Njg4Ii8+PC9nPjxnIGNsYXNzPSJlbnRpdHkiIGRhdGEtZW50aXR5PSJJbnRlcmZhY2VBZG1pbiIgZGF0YS1zb3VyY2UtbGluZT0iNSIgZGF0YS11aWQ9ImVudDAwMDMiIGlkPSJlbnRpdHlfSW50ZXJmYWNlQWRtaW4iPjxyZWN0IGZpbGw9IiNGMUYxRjEiIGhlaWdodD0iMzQuOTg0NCIgcng9IjIuNSIgcnk9IjIuNSIgc3R5bGU9InN0cm9rZTojMTgxODE4O3N0cm9rZS13aWR0aDowLjU7IiB3aWR0aD0iMTEyIiB4PSI2MDAuODMiIHk9IjE1Mi45ODQ0Ii8+PHRleHQgZmlsbD0iIzAwMDAwMCIgZm9udC1mYW1pbHk9InNhbnMtc2VyaWYiIGZvbnQtc2l6ZT0iMTQiIGxlbmd0aEFkanVzdD0ic3BhY2luZyIgdGV4dExlbmd0aD0iOTgiIHg9IjYwNy44MyIgeT0iMTY4LjIxODgiPkludGVyZmFjZUFkbWluPC90ZXh0PjxsaW5lIHN0eWxlPSJzdHJva2U6IzE4MTgxODtzdHJva2Utd2lkdGg6MC41OyIgeDE9IjYwMS44MyIgeDI9IjcxMS44MyIgeTE9IjE3MS45Njg4IiB5Mj0iMTcxLjk2ODgiLz48L2c+PGcgY2xhc3M9ImVudGl0eSIgZGF0YS1lbnRpdHk9IkFkbWluQ29udHJvbGxlciIgZGF0YS1zb3VyY2UtbGluZT0iNiIgZGF0YS11aWQ9ImVudDAwMDQiIGlkPSJlbnRpdHlfQWRtaW5Db250cm9sbGVyIj48cmVjdCBmaWxsPSIjRjFGMUYxIiBoZWlnaHQ9IjM0Ljk4NDQiIHJ4PSIyLjUiIHJ5PSIyLjUiIHN0eWxlPSJzdHJva2U6IzE4MTgxODtzdHJva2Utd2lkdGg6MC41OyIgd2lkdGg9IjExOSIgeD0iMTk1LjMzIiB5PSIyNjIuOTg0NCIvPjx0ZXh0IGZpbGw9IiMwMDAwMDAiIGZvbnQtZmFtaWx5PSJzYW5zLXNlcmlmIiBmb250LXNpemU9IjE0IiBsZW5ndGhBZGp1c3Q9InNwYWNpbmciIHRleHRMZW5ndGg9IjEwNSIgeD0iMjAyLjMzIiB5PSIyNzguMjE4OCI+QWRtaW5Db250cm9sbGVyPC90ZXh0PjxsaW5lIHN0eWxlPSJzdHJva2U6IzE4MTgxODtzdHJva2Utd2lkdGg6MC41OyIgeDE9IjE5Ni4zMyIgeDI9IjMxMy4zMyIgeTE9IjI4MS45Njg4IiB5Mj0iMjgxLjk2ODgiLz48L2c+PGcgY2xhc3M9ImVudGl0eSIgZGF0YS1lbnRpdHk9IkFkbWluU2VydmljZSIgZGF0YS1zb3VyY2UtbGluZT0iNyIgZGF0YS11aWQ9ImVudDAwMDUiIGlkPSJlbnRpdHlfQWRtaW5TZXJ2aWNlIj48cmVjdCBmaWxsPSIjRjFGMUYxIiBoZWlnaHQ9IjM0Ljk4NDQiIHJ4PSIyLjUiIHJ5PSIyLjUiIHN0eWxlPSJzdHJva2U6IzE4MTgxODtzdHJva2Utd2lkdGg6MC41OyIgd2lkdGg9Ijk4IiB4PSI2MDcuODMiIHk9IjM3Mi45ODQ0Ii8+PHRleHQgZmlsbD0iIzAwMDAwMCIgZm9udC1mYW1pbHk9InNhbnMtc2VyaWYiIGZvbnQtc2l6ZT0iMTQiIGxlbmd0aEFkanVzdD0ic3BhY2luZyIgdGV4dExlbmd0aD0iODQiIHg9IjYxNC44MyIgeT0iMzg4LjIxODgiPkFkbWluU2VydmljZTwvdGV4dD48bGluZSBzdHlsZT0ic3Ryb2tlOiMxODE4MTg7c3Ryb2tlLXdpZHRoOjAuNTsiIHgxPSI2MDguODMiIHgyPSI3MDQuODMiIHkxPSIzOTEuOTY4OCIgeTI9IjM5MS45Njg4Ii8+PC9nPjxnIGNsYXNzPSJlbnRpdHkiIGRhdGEtZW50aXR5PSJBbnVuY2lvUmVwb3NpdG9yeSIgZGF0YS1zb3VyY2UtbGluZT0iOCIgZGF0YS11aWQ9ImVudDAwMDYiIGlkPSJlbnRpdHlfQW51bmNpb1JlcG9zaXRvcnkiPjxyZWN0IGZpbGw9IiNGMUYxRjEiIGhlaWdodD0iMzQuOTg0NCIgcng9IjIuNSIgcnk9IjIuNSIgc3R5bGU9InN0cm9rZTojMTgxODE4O3N0cm9rZS13aWR0aDowLjU7IiB3aWR0aD0iMTMzIiB4PSIzNjQuMzMiIHk9IjQ4Mi45ODQ0Ii8+PHRleHQgZmlsbD0iIzAwMDAwMCIgZm9udC1mYW1pbHk9InNhbnMtc2VyaWYiIGZvbnQtc2l6ZT0iMTQiIGxlbmd0aEFkanVzdD0ic3BhY2luZyIgdGV4dExlbmd0aD0iMTE5IiB4PSIzNzEuMzMiIHk9IjQ5OC4yMTg4Ij5BbnVuY2lvUmVwb3NpdG9yeTwvdGV4dD48bGluZSBzdHlsZT0ic3Ryb2tlOiMxODE4MTg7c3Ryb2tlLXdpZHRoOjAuNTsiIHgxPSIzNjUuMzMiIHgyPSI0OTYuMzMiIHkxPSI1MDEuOTY4OCIgeTI9IjUwMS45Njg4Ii8+PC9nPjxnIGNsYXNzPSJlbnRpdHkiIGRhdGEtZW50aXR5PSJCYW5jb0RlRGFkb3MiIGRhdGEtc291cmNlLWxpbmU9IjkiIGRhdGEtdWlkPSJlbnQwMDA3IiBpZD0iZW50aXR5X0JhbmNvRGVEYWRvcyI+PHJlY3QgZmlsbD0iI0YxRjFGMSIgaGVpZ2h0PSIzNC45ODQ0IiByeD0iMi41IiByeT0iMi41IiBzdHlsZT0ic3Ryb2tlOiMxODE4MTg7c3Ryb2tlLXdpZHRoOjAuNTsiIHdpZHRoPSI5OCIgeD0iMzgxLjgzIiB5PSI1OTIuOTg0NCIvPjx0ZXh0IGZpbGw9IiMwMDAwMDAiIGZvbnQtZmFtaWx5PSJzYW5zLXNlcmlmIiBmb250LXNpemU9IjE0IiBsZW5ndGhBZGp1c3Q9InNwYWNpbmciIHRleHRMZW5ndGg9Ijg0IiB4PSIzODguODMiIHk9IjYwOC4yMTg4Ij5CYW5jb0RlRGFkb3M8L3RleHQ+PGxpbmUgc3R5bGU9InN0cm9rZTojMTgxODE4O3N0cm9rZS13aWR0aDowLjU7IiB4MT0iMzgyLjgzIiB4Mj0iNDc4LjgzIiB5MT0iNjExLjk2ODgiIHkyPSI2MTEuOTY4OCIvPjwvZz48ZyBjbGFzcz0iZW50aXR5IiBkYXRhLWVudGl0eT0iU2Vydmljb01vbml0b3JhbWVudG8iIGRhdGEtc291cmNlLWxpbmU9IjEwIiBkYXRhLXVpZD0iZW50MDAwOCIgaWQ9ImVudGl0eV9TZXJ2aWNvTW9uaXRvcmFtZW50byI+PHJlY3QgZmlsbD0iI0YxRjFGMSIgaGVpZ2h0PSIzNC45ODQ0IiByeD0iMi41IiByeT0iMi41IiBzdHlsZT0ic3Ryb2tlOiMxODE4MTg7c3Ryb2tlLXdpZHRoOjAuNTsiIHdpZHRoPSIxNTQiIHg9IjkxMy44MyIgeT0iNDgyLjk4NDQiLz48dGV4dCBmaWxsPSIjMDAwMDAwIiBmb250LWZhbWlseT0ic2Fucy1zZXJpZiIgZm9udC1zaXplPSIxNCIgbGVuZ3RoQWRqdXN0PSJzcGFjaW5nIiB0ZXh0TGVuZ3RoPSIxNDAiIHg9IjkyMC44MyIgeT0iNDk4LjIxODgiPlNlcnZpY29Nb25pdG9yYW1lbnRvPC90ZXh0PjxsaW5lIHN0eWxlPSJzdHJva2U6IzE4MTgxODtzdHJva2Utd2lkdGg6MC41OyIgeDE9IjkxNC44MyIgeDI9IjEwNjYuODMiIHkxPSI1MDEuOTY4OCIgeTI9IjUwMS45Njg4Ii8+PC9nPjwhLS1saW5rIEFkbWluaXN0cmFkb3IgdG8gSW50ZXJmYWNlQWRtaW4tLT48ZyBjbGFzcz0ibGluayIgZGF0YS1lbnRpdHktMT0iQWRtaW5pc3RyYWRvciIgZGF0YS1lbnRpdHktMj0iSW50ZXJmYWNlQWRtaW4iIGRhdGEtc291cmNlLWxpbmU9IjE0IiBkYXRhLXVpZD0ibG5rOSIgaWQ9ImxpbmtfQWRtaW5pc3RyYWRvcl9JbnRlcmZhY2VBZG1pbiI+PHBhdGggY29kZUxpbmU9IjE0IiBkPSJNNjA0LjExLDYwLjc3NDQgQzUxOS4xNSw2MC44ODQ0IDM1Ny43OCw2Ni42OTQ0IDMyMS44MywxMDcuOTg0NCBDMjg0LjE2LDE1MS4yNDQ0IDQ4OS45NjM5LDE2NC4wMzg3IDU5NC43NzM5LDE2Ny44MDg3IiBmaWxsPSJub25lIiBpZD0iQWRtaW5pc3RyYWRvci10by1JbnRlcmZhY2VBZG1pbiIgc3R5bGU9InN0cm9rZTojMTgxODE4O3N0cm9rZS13aWR0aDoxOyIvPjxwb2x5Z29uIGZpbGw9IiMxODE4MTgiIHBvaW50cz0iNjAwLjc3LDE2OC4wMjQ0LDU5MS45MTk2LDE2My43MDM0LDU5NS43NzMyLDE2Ny44NDQ2LDU5MS42MzIsMTcxLjY5ODMsNjAwLjc3LDE2OC4wMjQ0IiBzdHlsZT0ic3Ryb2tlOiMxODE4MTg7c3Ryb2tlLXdpZHRoOjE7Ii8+PHRleHQgZmlsbD0iIzAwMDAwMCIgZm9udC1mYW1pbHk9InNhbnMtc2VyaWYiIGZvbnQtc2l6ZT0iMTMiIGZvbnQtd2VpZ2h0PSJib2xkIiBsZW5ndGhBZGp1c3Q9InNwYWNpbmciIHRleHRMZW5ndGg9IjE2Mi41IiB4PSIzMjIuODMiIHk9IjEyMS4yNzM0Ij4xOiBzb2xpY2l0YXJBY2Vzc29BZG1pbigpPC90ZXh0PjwvZz48IS0tbGluayBJbnRlcmZhY2VBZG1pbiB0byBBZG1pbmlzdHJhZG9yLS0+PGcgY2xhc3M9ImxpbmsiIGRhdGEtZW50aXR5LTE9IkludGVyZmFjZUFkbWluIiBkYXRhLWVudGl0eS0yPSJBZG1pbmlzdHJhZG9yIiBkYXRhLXNvdXJjZS1saW5lPSIyOCIgZGF0YS11aWQ9ImxuazE5IiBpZD0ibGlua19JbnRlcmZhY2VBZG1pbl9BZG1pbmlzdHJhZG9yIj48cGF0aCBjb2RlTGluZT0iMjgiIGQ9Ik03MTAuNzcsMTUyLjg3NDQgQzcyNC41OCwxNDUuOTE0NCA3MzcuNzksMTM2LjI1NDQgNzQ1LjgzLDEyMi45ODQ0IEM3NTguNDgsMTAyLjEwNDQgNzQwLjkwOSw4OC43NzIyIDcxNS4wNTksNzguNTQyMiIgZmlsbD0ibm9uZSIgaWQ9IkludGVyZmFjZUFkbWluLXRvLUFkbWluaXN0cmFkb3IiIHN0eWxlPSJzdHJva2U6IzE4MTgxODtzdHJva2Utd2lkdGg6MTsiLz48cG9seWdvbiBmaWxsPSIjMTgxODE4IiBwb2ludHM9IjcwOS40OCw3Ni4zMzQ0LDcxNi4zNzY2LDgzLjM2NTUsNzE0LjEyOTIsNzguMTc0Myw3MTkuMzIwNCw3NS45MjY4LDcwOS40OCw3Ni4zMzQ0IiBzdHlsZT0ic3Ryb2tlOiMxODE4MTg7c3Ryb2tlLXdpZHRoOjE7Ii8+PHRleHQgZmlsbD0iIzAwMDAwMCIgZm9udC1mYW1pbHk9InNhbnMtc2VyaWYiIGZvbnQtc2l6ZT0iMTMiIGZvbnQtd2VpZ2h0PSJib2xkIiBsZW5ndGhBZGp1c3Q9InNwYWNpbmciIHRleHRMZW5ndGg9IjEzNi41IiB4PSI3NTAuODMiIHk9IjEyMS4yNzM0Ij42LjE6IGFndWFyZGFEZWNpc2FvKCk8L3RleHQ+PC9nPjwhLS1saW5rIEFkbWluaXN0cmFkb3IgdG8gSW50ZXJmYWNlQWRtaW4tLT48ZyBjbGFzcz0ibGluayIgZGF0YS1lbnRpdHktMT0iQWRtaW5pc3RyYWRvciIgZGF0YS1lbnRpdHktMj0iSW50ZXJmYWNlQWRtaW4iIGRhdGEtc291cmNlLWxpbmU9IjMwIiBkYXRhLXVpZD0ibG5rMjAiIGlkPSJsaW5rX0FkbWluaXN0cmFkb3JfSW50ZXJmYWNlQWRtaW4iPjxwYXRoIGNvZGVMaW5lPSIzMCIgZD0iTTYwNC4wMiw2Ni43OTQ0IEM1NTYuNjEsNzMuNzk0NCA0OTcuOSw4OS40MzQ0IDUyMS44MywxMjIuOTg0NCBDNTM5Ljc1LDE0OC4xMTQ0IDU2Ni4yNzM2LDE1OC42ODQgNTk0Ljg0MzYsMTY0LjA2NCIgZmlsbD0ibm9uZSIgaWQ9IkFkbWluaXN0cmFkb3ItdG8tSW50ZXJmYWNlQWRtaW4tMSIgc3R5bGU9InN0cm9rZTojMTgxODE4O3N0cm9rZS13aWR0aDoxOyIvPjxwb2x5Z29uIGZpbGw9IiMxODE4MTgiIHBvaW50cz0iNjAwLjc0LDE2NS4xNzQ0LDU5Mi42MzU3LDE1OS41NzgsNTk1LjgyNjQsMTY0LjI0OTEsNTkxLjE1NTIsMTY3LjQzOTgsNjAwLjc0LDE2NS4xNzQ0IiBzdHlsZT0ic3Ryb2tlOiMxODE4MTg7c3Ryb2tlLXdpZHRoOjE7Ii8+PHRleHQgZmlsbD0iIzAwMDAwMCIgZm9udC1mYW1pbHk9InNhbnMtc2VyaWYiIGZvbnQtc2l6ZT0iMTMiIGZvbnQtd2VpZ2h0PSJib2xkIiBsZW5ndGhBZGp1c3Q9InNwYWNpbmciIHRleHRMZW5ndGg9IjIxNC41IiB4PSI1MjIuODMiIHk9IjEyMS4yNzM0Ij43OiBlbnZpYXJEZWNpc2FvKEFwcm92YXIvUmVtb3Zlcik8L3RleHQ+PC9nPjwhLS1saW5rIEludGVyZmFjZUFkbWluIHRvIEFkbWluaXN0cmFkb3ItLT48ZyBjbGFzcz0ibGluayIgZGF0YS1lbnRpdHktMT0iSW50ZXJmYWNlQWRtaW4iIGRhdGEtZW50aXR5LTI9IkFkbWluaXN0cmFkb3IiIGRhdGEtc291cmNlLWxpbmU9IjM5IiBkYXRhLXVpZD0ibG5rMjciIGlkPSJsaW5rX0ludGVyZmFjZUFkbWluX0FkbWluaXN0cmFkb3IiPjxwYXRoIGNvZGVMaW5lPSIzOSIgZD0iTTcxMywxNjYuNTc0NCBDNzc2LjIzLDE2MS45ODQ0IDg3My4xMSwxNTAuNTQ0NCA4OTUuODMsMTIyLjk4NDQgQzkwMC4wNywxMTcuODQ0NCA5MDAuMDcsMTEzLjEyNDQgODk1LjgzLDEwNy45ODQ0IEM4NzIuNjcsNzkuODk0NCA3NzguNDU1Myw2OC45NzM4IDcxNS4zNzUzLDY0LjU1MzgiIGZpbGw9Im5vbmUiIGlkPSJJbnRlcmZhY2VBZG1pbi10by1BZG1pbmlzdHJhZG9yLTEiIHN0eWxlPSJzdHJva2U6IzE4MTgxODtzdHJva2Utd2lkdGg6MTsiLz48cG9seWdvbiBmaWxsPSIjMTgxODE4IiBwb2ludHM9IjcwOS4zOSw2NC4xMzQ0LDcxOC4wODg0LDY4Ljc1MzcsNzE0LjM3NzgsNjQuNDgzOSw3MTguNjQ3Niw2MC43NzMyLDcwOS4zOSw2NC4xMzQ0IiBzdHlsZT0ic3Ryb2tlOiMxODE4MTg7c3Ryb2tlLXdpZHRoOjE7Ii8+PHRleHQgZmlsbD0iIzAwMDAwMCIgZm9udC1mYW1pbHk9InNhbnMtc2VyaWYiIGZvbnQtc2l6ZT0iMTMiIGZvbnQtd2VpZ2h0PSJib2xkIiBsZW5ndGhBZGp1c3Q9InNwYWNpbmciIHRleHRMZW5ndGg9IjE4MiIgeD0iOTAwLjgzIiB5PSIxMjEuMjczNCI+MTA6IGV4aWJpck5vdGlmaWNhY2FvRmluYWwoKTwvdGV4dD48L2c+PCEtLWxpbmsgSW50ZXJmYWNlQWRtaW4gdG8gQWRtaW5Db250cm9sbGVyLS0+PGcgY2xhc3M9ImxpbmsiIGRhdGEtZW50aXR5LTE9IkludGVyZmFjZUFkbWluIiBkYXRhLWVudGl0eS0yPSJBZG1pbkNvbnRyb2xsZXIiIGRhdGEtc291cmNlLWxpbmU9IjE1IiBkYXRhLXVpZD0ibG5rMTAiIGlkPSJsaW5rX0ludGVyZmFjZUFkbWluX0FkbWluQ29udHJvbGxlciI+PHBhdGggY29kZUxpbmU9IjE1IiBkPSJNNjAwLjY3LDE3NC42MTQ0IEM1MTYuNjMsMTgwLjA0NDQgMzYyLjc3LDE5My4wOTQ0IDMxMy44MywyMTcuOTg0NCBDMjkzLjUyLDIyOC4zMTQ0IDI3OS44MjE4LDI0My42MjQgMjY5LjMyMTgsMjU4LjA0NCIgZmlsbD0ibm9uZSIgaWQ9IkludGVyZmFjZUFkbWluLXRvLUFkbWluQ29udHJvbGxlciIgc3R5bGU9InN0cm9rZTojMTgxODE4O3N0cm9rZS13aWR0aDoxOyIvPjxwb2x5Z29uIGZpbGw9IiMxODE4MTgiIHBvaW50cz0iMjY1Ljc5LDI2Mi44OTQ0LDI3NC4zMjEzLDI1Ny45NzM0LDI2OC43MzMyLDI1OC44NTI0LDI2Ny44NTQyLDI1My4yNjQzLDI2NS43OSwyNjIuODk0NCIgc3R5bGU9InN0cm9rZTojMTgxODE4O3N0cm9rZS13aWR0aDoxOyIvPjx0ZXh0IGZpbGw9IiMwMDAwMDAiIGZvbnQtZmFtaWx5PSJzYW5zLXNlcmlmIiBmb250LXNpemU9IjEzIiBmb250LXdlaWdodD0iYm9sZCIgbGVuZ3RoQWRqdXN0PSJzcGFjaW5nIiB0ZXh0TGVuZ3RoPSIxNjIuNSIgeD0iMzE0LjgzIiB5PSIyMzEuMjczNCI+MS4xOiBzb2xpY2l0YXJEYXNoYm9hcmQoKTwvdGV4dD48L2c+PCEtLWxpbmsgQWRtaW5Db250cm9sbGVyIHRvIEFkbWluU2VydmljZS0tPjxnIGNsYXNzPSJsaW5rIiBkYXRhLWVudGl0eS0xPSJBZG1pbkNvbnRyb2xsZXIiIGRhdGEtZW50aXR5LTI9IkFkbWluU2VydmljZSIgZGF0YS1zb3VyY2UtbGluZT0iMTYiIGRhdGEtdWlkPSJsbmsxMSIgaWQ9ImxpbmtfQWRtaW5Db250cm9sbGVyX0FkbWluU2VydmljZSI+PHBhdGggY29kZUxpbmU9IjE2IiBkPSJNMjE3Ljg5LDI5Ny45OTQ0IEMxOTYuMDQsMzA5Ljk4NDQgMTc1LjIzLDMyNi44NjQ0IDE4OS44MywzNDIuOTg0NCBDMjE3LjUxLDM3My41NjQ0IDQ4Ny42MDI2LDM4NC42ODY5IDYwMS43OTI2LDM4OC4wNjY5IiBmaWxsPSJub25lIiBpZD0iQWRtaW5Db250cm9sbGVyLXRvLUFkbWluU2VydmljZSIgc3R5bGU9InN0cm9rZTojMTgxODE4O3N0cm9rZS13aWR0aDoxOyIvPjxwb2x5Z29uIGZpbGw9IiMxODE4MTgiIHBvaW50cz0iNjA3Ljc5LDM4OC4yNDQ0LDU5OC45MTIzLDM4My45Nzk4LDYwMi43OTIyLDM4OC4wOTY0LDU5OC42NzU2LDM5MS45NzYzLDYwNy43OSwzODguMjQ0NCIgc3R5bGU9InN0cm9rZTojMTgxODE4O3N0cm9rZS13aWR0aDoxOyIvPjx0ZXh0IGZpbGw9IiMwMDAwMDAiIGZvbnQtZmFtaWx5PSJzYW5zLXNlcmlmIiBmb250LXNpemU9IjEzIiBmb250LXdlaWdodD0iYm9sZCIgbGVuZ3RoQWRqdXN0PSJzcGFjaW5nIiB0ZXh0TGVuZ3RoPSIyODYiIHg9IjE5MC44MyIgeT0iMzQxLjI3MzQiPjI6IHByb2Nlc3NhckFjYW8oYWNhbzogTW9kZXJhciBvdSBNb25pdG9yYXIpPC90ZXh0PjwvZz48IS0tbGluayBBZG1pblNlcnZpY2UgdG8gU2Vydmljb01vbml0b3JhbWVudG8tLT48ZyBjbGFzcz0ibGluayIgZGF0YS1lbnRpdHktMT0iQWRtaW5TZXJ2aWNlIiBkYXRhLWVudGl0eS0yPSJTZXJ2aWNvTW9uaXRvcmFtZW50byIgZGF0YS1zb3VyY2UtbGluZT0iMTciIGRhdGEtdWlkPSJsbmsxMiIgaWQ9ImxpbmtfQWRtaW5TZXJ2aWNlX1NlcnZpY29Nb25pdG9yYW1lbnRvIj48cGF0aCBjb2RlTGluZT0iMTciIGQ9Ik03MDYuMDYsNDA1LjAxNDQgQzczNy44Miw0MTMuOTI0NCA3NzkuOTMsNDI2LjExNDQgODE2LjgzLDQzNy45ODQ0IEM4NjEuMiw0NTIuMjY0NCA5MDUuNzA1MSw0NjguMTEzMiA5NDAuNzI1MSw0ODAuOTIzMiIgZmlsbD0ibm9uZSIgaWQ9IkFkbWluU2VydmljZS10by1TZXJ2aWNvTW9uaXRvcmFtZW50byIgc3R5bGU9InN0cm9rZTojMTgxODE4O3N0cm9rZS13aWR0aDoxOyIvPjxwb2x5Z29uIGZpbGw9IiMxODE4MTgiIHBvaW50cz0iOTQ2LjM2LDQ4Mi45ODQ0LDkzOS4yODE4LDQ3Ni4xMzYsOTQxLjY2NDMsNDgxLjI2NjcsOTM2LjUzMzYsNDgzLjY0OTIsOTQ2LjM2LDQ4Mi45ODQ0IiBzdHlsZT0ic3Ryb2tlOiMxODE4MTg7c3Ryb2tlLXdpZHRoOjE7Ii8+PHRleHQgZmlsbD0iIzAwMDAwMCIgZm9udC1mYW1pbHk9InNhbnMtc2VyaWYiIGZvbnQtc2l6ZT0iMTMiIGZvbnQtd2VpZ2h0PSJib2xkIiBsZW5ndGhBZGp1c3Q9InNwYWNpbmciIHRleHRMZW5ndGg9IjE3NS41IiB4PSI4NjEuODMiIHk9IjQ1MS4yNzM0Ij4zOiBjb25zdWx0YXJTYXVkZVNjcmFwZXJzKCk8L3RleHQ+PC9nPjwhLS1saW5rIFNlcnZpY29Nb25pdG9yYW1lbnRvIHRvIEFkbWluU2VydmljZS0tPjxnIGNsYXNzPSJsaW5rIiBkYXRhLWVudGl0eS0xPSJTZXJ2aWNvTW9uaXRvcmFtZW50byIgZGF0YS1lbnRpdHktMj0iQWRtaW5TZXJ2aWNlIiBkYXRhLXNvdXJjZS1saW5lPSIxOCIgZGF0YS11aWQ9ImxuazEzIiBpZD0ibGlua19TZXJ2aWNvTW9uaXRvcmFtZW50b19BZG1pblNlcnZpY2UiPjxwYXRoIGNvZGVMaW5lPSIxOCIgZD0iTTEwMjEuODYsNDgyLjgwNDQgQzEwNDAuOTMsNDcwLjQ1NDQgMTA1OS4zMyw0NTMuMTk0NCAxMDQ1LjgzLDQzNy45ODQ0IEMxMDIzLjYyLDQxMi45NjQ0IDgxMS43NjIsMzk5LjI0NCA3MTIuMTEyLDM5NC4wOTQiIGZpbGw9Im5vbmUiIGlkPSJTZXJ2aWNvTW9uaXRvcmFtZW50by10by1BZG1pblNlcnZpY2UiIHN0eWxlPSJzdHJva2U6IzE4MTgxODtzdHJva2Utd2lkdGg6MTsiLz48cG9seWdvbiBmaWxsPSIjMTgxODE4IiBwb2ludHM9IjcwNi4xMiwzOTMuNzg0NCw3MTQuOTAxNiwzOTguMjQzNiw3MTEuMTEzMywzOTQuMDQyNCw3MTUuMzE0NSwzOTAuMjU0Miw3MDYuMTIsMzkzLjc4NDQiIHN0eWxlPSJzdHJva2U6IzE4MTgxODtzdHJva2Utd2lkdGg6MTsiLz48dGV4dCBmaWxsPSIjMDAwMDAwIiBmb250LWZhbWlseT0ic2Fucy1zZXJpZiIgZm9udC1zaXplPSIxMyIgZm9udC13ZWlnaHQ9ImJvbGQiIGxlbmd0aEFkanVzdD0ic3BhY2luZyIgdGV4dExlbmd0aD0iMTU2IiB4PSIxMDUwLjgzIiB5PSI0NTEuMjczNCI+NDogcmV0b3JuYXJMb2dzRVN0YXR1cygpPC90ZXh0PjwvZz48IS0tbGluayBBZG1pblNlcnZpY2UgdG8gQW51bmNpb1JlcG9zaXRvcnktLT48ZyBjbGFzcz0ibGluayIgZGF0YS1lbnRpdHktMT0iQWRtaW5TZXJ2aWNlIiBkYXRhLWVudGl0eS0yPSJBbnVuY2lvUmVwb3NpdG9yeSIgZGF0YS1zb3VyY2UtbGluZT0iMjIiIGRhdGEtdWlkPSJsbmsxNCIgaWQ9ImxpbmtfQWRtaW5TZXJ2aWNlX0FudW5jaW9SZXBvc2l0b3J5Ij48cGF0aCBjb2RlTGluZT0iMjIiIGQ9Ik02MDcuNzQsMzkxLjUxNDQgQzQ3MC4wMSwzOTIuMDk0NCA4Ny40NCwzOTcuMzc0NCA0OS44Myw0MzcuOTg0NCBDNiw0ODUuMjk0NCAyMzcuNTExMyw0OTYuMDk5IDM1OC4wNDEzLDQ5OC42MTkiIGZpbGw9Im5vbmUiIGlkPSJBZG1pblNlcnZpY2UtdG8tQW51bmNpb1JlcG9zaXRvcnkiIHN0eWxlPSJzdHJva2U6IzE4MTgxODtzdHJva2Utd2lkdGg6MTsiLz48cG9seWdvbiBmaWxsPSIjMTgxODE4IiBwb2ludHM9IjM2NC4wNCw0OTguNzQ0NCwzNTUuMTI1Niw0OTQuNTU3MSwzNTkuMDQxMSw0OTguNjM5OSwzNTQuOTU4NCw1MDIuNTU1NCwzNjQuMDQsNDk4Ljc0NDQiIHN0eWxlPSJzdHJva2U6IzE4MTgxODtzdHJva2Utd2lkdGg6MTsiLz48dGV4dCBmaWxsPSIjMDAwMDAwIiBmb250LWZhbWlseT0ic2Fucy1zZXJpZiIgZm9udC1zaXplPSIxMyIgZm9udC13ZWlnaHQ9ImJvbGQiIGxlbmd0aEFkanVzdD0ic3BhY2luZyIgdGV4dExlbmd0aD0iMjAxLjUiIHg9IjUwLjgzIiB5PSI0NTEuMjczNCI+NTogYnVzY2FyQW51bmNpb1BhcmFWYWxpZGFyKGlkKTwvdGV4dD48L2c+PCEtLWxpbmsgQW51bmNpb1JlcG9zaXRvcnkgdG8gQWRtaW5TZXJ2aWNlLS0+PGcgY2xhc3M9ImxpbmsiIGRhdGEtZW50aXR5LTE9IkFudW5jaW9SZXBvc2l0b3J5IiBkYXRhLWVudGl0eS0yPSJBZG1pblNlcnZpY2UiIGRhdGEtc291cmNlLWxpbmU9IjI1IiBkYXRhLXVpZD0ibG5rMTciIGlkPSJsaW5rX0FudW5jaW9SZXBvc2l0b3J5X0FkbWluU2VydmljZSI+PHBhdGggY29kZUxpbmU9IjI1IiBkPSJNNDY1LjY4LDQ4Mi44MjQ0IEM1MDguMTcsNDYyLjUyNDQgNTc0LjEyNjEsNDMxLjAwMDkgNjE2LjU5NjEsNDEwLjcxMDkiIGZpbGw9Im5vbmUiIGlkPSJBbnVuY2lvUmVwb3NpdG9yeS10by1BZG1pblNlcnZpY2UiIHN0eWxlPSJzdHJva2U6IzE4MTgxODtzdHJva2Utd2lkdGg6MTsiLz48cG9seWdvbiBmaWxsPSIjMTgxODE4IiBwb2ludHM9IjYyMi4wMSw0MDguMTI0NCw2MTIuMTY0OSw0MDguMzk0OCw2MTcuNDk4NCw0MTAuMjc5OCw2MTUuNjEzNSw0MTUuNjEzMyw2MjIuMDEsNDA4LjEyNDQiIHN0eWxlPSJzdHJva2U6IzE4MTgxODtzdHJva2Utd2lkdGg6MTsiLz48dGV4dCBmaWxsPSIjMDAwMDAwIiBmb250LWZhbWlseT0ic2Fucy1zZXJpZiIgZm9udC1zaXplPSIxMyIgZm9udC13ZWlnaHQ9ImJvbGQiIGxlbmd0aEFkanVzdD0ic3BhY2luZyIgdGV4dExlbmd0aD0iMTQzIiB4PSI1NTguODMiIHk9IjQ1MS4yNzM0Ij41LjM6IHJldG9ybmFyQW51bmNpbygpPC90ZXh0PjwvZz48IS0tbGluayBBZG1pblNlcnZpY2UgdG8gQW51bmNpb1JlcG9zaXRvcnktLT48ZyBjbGFzcz0ibGluayIgZGF0YS1lbnRpdHktMT0iQWRtaW5TZXJ2aWNlIiBkYXRhLWVudGl0eS0yPSJBbnVuY2lvUmVwb3NpdG9yeSIgZGF0YS1zb3VyY2UtbGluZT0iMzMiIGRhdGEtdWlkPSJsbmsyMiIgaWQ9ImxpbmtfQWRtaW5TZXJ2aWNlX0FudW5jaW9SZXBvc2l0b3J5Ij48cGF0aCBjb2RlTGluZT0iMzMiIGQ9Ik02MDcuNTgsMzk0LjIzNDQgQzUxMy4xNyw0MDAuMDA0NCAzMTQuMjQsNDE0Ljc5NDQgMjkzLjgzLDQzNy45ODQ0IEMyNjguNDIsNDY2Ljg1NDQgMzExLjg2NTcsNDgxLjgwNjggMzU4LjI2NTcsNDkwLjE5NjgiIGZpbGw9Im5vbmUiIGlkPSJBZG1pblNlcnZpY2UtdG8tQW51bmNpb1JlcG9zaXRvcnktMSIgc3R5bGU9InN0cm9rZTojMTgxODE4O3N0cm9rZS13aWR0aDoxOyIvPjxwb2x5Z29uIGZpbGw9IiMxODE4MTgiIHBvaW50cz0iMzY0LjE3LDQ5MS4yNjQ0LDM1Ni4wMjU0LDQ4NS43MjY4LDM1OS4yNDk4LDQ5MC4zNzQ3LDM1NC42MDE5LDQ5My41OTkxLDM2NC4xNyw0OTEuMjY0NCIgc3R5bGU9InN0cm9rZTojMTgxODE4O3N0cm9rZS13aWR0aDoxOyIvPjx0ZXh0IGZpbGw9IiMwMDAwMDAiIGZvbnQtZmFtaWx5PSJzYW5zLXNlcmlmIiBmb250LXNpemU9IjEzIiBmb250LXdlaWdodD0iYm9sZCIgbGVuZ3RoQWRqdXN0PSJzcGFjaW5nIiB0ZXh0TGVuZ3RoPSIyMjcuNSIgeD0iMjk0LjgzIiB5PSI0NTEuMjczNCI+ODogcGVyc2lzdGlyRGVjaXNhbyhpZCwgbm92b1N0YXR1cyk8L3RleHQ+PC9nPjwhLS1saW5rIEFudW5jaW9SZXBvc2l0b3J5IHRvIEFkbWluU2VydmljZS0tPjxnIGNsYXNzPSJsaW5rIiBkYXRhLWVudGl0eS0xPSJBbnVuY2lvUmVwb3NpdG9yeSIgZGF0YS1lbnRpdHktMj0iQWRtaW5TZXJ2aWNlIiBkYXRhLXNvdXJjZS1saW5lPSIzNiIgZGF0YS11aWQ9ImxuazI1IiBpZD0ibGlua19BbnVuY2lvUmVwb3NpdG9yeV9BZG1pblNlcnZpY2UiPjxwYXRoIGNvZGVMaW5lPSIzNiIgZD0iTTQ5Ny41Miw0OTcuOTg0NCBDNTcxLjUxLDQ5NC43NDQ0IDY4NC4wMiw0ODQuNjA0NCA3MTAuODMsNDUyLjk4NDQgQzcyMy44Nyw0MzcuNTk0NCA3MTAuODM4OCw0MjMuNjU3NyA2OTIuMTg4OCw0MTEuMzU3NyIgZmlsbD0ibm9uZSIgaWQ9IkFudW5jaW9SZXBvc2l0b3J5LXRvLUFkbWluU2VydmljZS0xIiBzdHlsZT0ic3Ryb2tlOiMxODE4MTg7c3Ryb2tlLXdpZHRoOjE7Ii8+PHBvbHlnb24gZmlsbD0iIzE4MTgxOCIgcG9pbnRzPSI2ODcuMTgsNDA4LjA1NDQsNjkyLjQ5MDksNDE2LjM0ODYsNjkxLjM1NCw0MTAuODA3Miw2OTYuODk1NCw0MDkuNjcwMyw2ODcuMTgsNDA4LjA1NDQiIHN0eWxlPSJzdHJva2U6IzE4MTgxODtzdHJva2Utd2lkdGg6MTsiLz48dGV4dCBmaWxsPSIjMDAwMDAwIiBmb250LWZhbWlseT0ic2Fucy1zZXJpZiIgZm9udC1zaXplPSIxMyIgZm9udC13ZWlnaHQ9ImJvbGQiIGxlbmd0aEFkanVzdD0ic3BhY2luZyIgdGV4dExlbmd0aD0iOTEiIHg9IjcxNi44MyIgeT0iNDUxLjI3MzQiPjguMzogU3VjZXNzbygpPC90ZXh0PjwvZz48IS0tbGluayBBbnVuY2lvUmVwb3NpdG9yeSB0byBCYW5jb0RlRGFkb3MtLT48ZyBjbGFzcz0ibGluayIgZGF0YS1lbnRpdHktMT0iQW51bmNpb1JlcG9zaXRvcnkiIGRhdGEtZW50aXR5LTI9IkJhbmNvRGVEYWRvcyIgZGF0YS1zb3VyY2UtbGluZT0iMjMiIGRhdGEtdWlkPSJsbmsxNSIgaWQ9ImxpbmtfQW51bmNpb1JlcG9zaXRvcnlfQmFuY29EZURhZG9zIj48cGF0aCBjb2RlTGluZT0iMjMiIGQ9Ik0zNjQuMDcsNTA3LjAyNDQgQzI4MS44Myw1MTUuMjE0NCAxNTUuODMsNTMyLjkwNDQgMTgwLjgzLDU2Mi45ODQ0IEMyMDUuODcsNTkzLjExNDQgMzEwLjM3OTcsNjAzLjQ3MjggMzc1Ljc5OTcsNjA3LjIwMjgiIGZpbGw9Im5vbmUiIGlkPSJBbnVuY2lvUmVwb3NpdG9yeS10by1CYW5jb0RlRGFkb3MiIHN0eWxlPSJzdHJva2U6IzE4MTgxODtzdHJva2Utd2lkdGg6MTsiLz48cG9seWdvbiBmaWxsPSIjMTgxODE4IiBwb2ludHM9IjM4MS43OSw2MDcuNTQ0NCwzNzMuMDMyMyw2MDMuMDM4NSwzNzYuNzk4MSw2MDcuMjU5OCwzNzIuNTc2OSw2MTEuMDI1NiwzODEuNzksNjA3LjU0NDQiIHN0eWxlPSJzdHJva2U6IzE4MTgxODtzdHJva2Utd2lkdGg6MTsiLz48dGV4dCBmaWxsPSIjMDAwMDAwIiBmb250LWZhbWlseT0ic2Fucy1zZXJpZiIgZm9udC1zaXplPSIxMyIgZm9udC13ZWlnaHQ9ImJvbGQiIGxlbmd0aEFkanVzdD0ic3BhY2luZyIgdGV4dExlbmd0aD0iMTIzLjUiIHg9IjE4MS44MyIgeT0iNTYxLjI3MzQiPjUuMTogU0VMRUNUIEFudW5jaW88L3RleHQ+PC9nPjwhLS1saW5rIEJhbmNvRGVEYWRvcyB0byBBbnVuY2lvUmVwb3NpdG9yeS0tPjxnIGNsYXNzPSJsaW5rIiBkYXRhLWVudGl0eS0xPSJCYW5jb0RlRGFkb3MiIGRhdGEtZW50aXR5LTI9IkFudW5jaW9SZXBvc2l0b3J5IiBkYXRhLXNvdXJjZS1saW5lPSIyNCIgZGF0YS11aWQ9ImxuazE2IiBpZD0ibGlua19CYW5jb0RlRGFkb3NfQW51bmNpb1JlcG9zaXRvcnkiPjxwYXRoIGNvZGVMaW5lPSIyNCIgZD0iTTQ1NC44Miw1OTIuODA0NCBDNDY4LjQxLDU4MS4xMzQ0IDQ4MS40OCw1NjQuNjk0NCA0NzQuODMsNTQ3Ljk4NDQgQzQ3MC4yMiw1MzYuNDE0NCA0NjUuNjMyMyw1MzAuMTQwMiA0NTYuOTcyMyw1MjIuMTYwMiIgZmlsbD0ibm9uZSIgaWQ9IkJhbmNvRGVEYWRvcy10by1BbnVuY2lvUmVwb3NpdG9yeSIgc3R5bGU9InN0cm9rZTojMTgxODE4O3N0cm9rZS13aWR0aDoxOyIvPjxwb2x5Z29uIGZpbGw9IiMxODE4MTgiIHBvaW50cz0iNDUyLjU2LDUxOC4wOTQ0LDQ1Ni40Njc5LDUyNy4xMzQ3LDQ1Ni4yMzY5LDUyMS40ODI2LDQ2MS44ODkxLDUyMS4yNTE2LDQ1Mi41Niw1MTguMDk0NCIgc3R5bGU9InN0cm9rZTojMTgxODE4O3N0cm9rZS13aWR0aDoxOyIvPjx0ZXh0IGZpbGw9IiMwMDAwMDAiIGZvbnQtZmFtaWx5PSJzYW5zLXNlcmlmIiBmb250LXNpemU9IjEzIiBmb250LXdlaWdodD0iYm9sZCIgbGVuZ3RoQWRqdXN0PSJzcGFjaW5nIiB0ZXh0TGVuZ3RoPSIxMzAiIHg9IjQ3Ny44MyIgeT0iNTYxLjI3MzQiPjUuMjogcmV0b3JuYXJEYWRvcygpPC90ZXh0PjwvZz48IS0tbGluayBBbnVuY2lvUmVwb3NpdG9yeSB0byBCYW5jb0RlRGFkb3MtLT48ZyBjbGFzcz0ibGluayIgZGF0YS1lbnRpdHktMT0iQW51bmNpb1JlcG9zaXRvcnkiIGRhdGEtZW50aXR5LTI9IkJhbmNvRGVEYWRvcyIgZGF0YS1zb3VyY2UtbGluZT0iMzQiIGRhdGEtdWlkPSJsbmsyMyIgaWQ9ImxpbmtfQW51bmNpb1JlcG9zaXRvcnlfQmFuY29EZURhZG9zIj48cGF0aCBjb2RlTGluZT0iMzQiIGQ9Ik0zNzQuMDMsNTE4LjAzNDQgQzM0OS45Myw1MjguMjU0NCAzMjkuODYsNTQzLjIyNDQgMzQxLjgzLDU2Mi45ODQ0IEMzNTAuNzcsNTc3Ljc0NDQgMzYwLjY0NTQsNTg1LjU0NDggMzc2LjA5NTQsNTkyLjYyNDgiIGZpbGw9Im5vbmUiIGlkPSJBbnVuY2lvUmVwb3NpdG9yeS10by1CYW5jb0RlRGFkb3MtMSIgc3R5bGU9InN0cm9rZTojMTgxODE4O3N0cm9rZS13aWR0aDoxOyIvPjxwb2x5Z29uIGZpbGw9IiMxODE4MTgiIHBvaW50cz0iMzgxLjU1LDU5NS4xMjQ0LDM3NS4wMzQ1LDU4Ny43Mzg3LDM3Ny4wMDQ1LDU5My4wNDE0LDM3MS43MDE4LDU5NS4wMTE0LDM4MS41NSw1OTUuMTI0NCIgc3R5bGU9InN0cm9rZTojMTgxODE4O3N0cm9rZS13aWR0aDoxOyIvPjx0ZXh0IGZpbGw9IiMwMDAwMDAiIGZvbnQtZmFtaWx5PSJzYW5zLXNlcmlmIiBmb250LXNpemU9IjEzIiBmb250LXdlaWdodD0iYm9sZCIgbGVuZ3RoQWRqdXN0PSJzcGFjaW5nIiB0ZXh0TGVuZ3RoPSIxMjMuNSIgeD0iMzQyLjgzIiB5PSI1NjEuMjczNCI+OC4xOiBVUERBVEUgQW51bmNpbzwvdGV4dD48L2c+PCEtLWxpbmsgQmFuY29EZURhZG9zIHRvIEFudW5jaW9SZXBvc2l0b3J5LS0+PGcgY2xhc3M9ImxpbmsiIGRhdGEtZW50aXR5LTE9IkJhbmNvRGVEYWRvcyIgZGF0YS1lbnRpdHktMj0iQW51bmNpb1JlcG9zaXRvcnkiIGRhdGEtc291cmNlLWxpbmU9IjM1IiBkYXRhLXVpZD0ibG5rMjQiIGlkPSJsaW5rX0JhbmNvRGVEYWRvc19BbnVuY2lvUmVwb3NpdG9yeSI+PHBhdGggY29kZUxpbmU9IjM1IiBkPSJNNDc5Ljk1LDYwOS4yMDQ0IEM1NDYuOTQsNjA3LjA3NDQgNjU0LjU1LDU5Ni4zMDQ0IDYxNi44Myw1NDcuOTg0NCBDNjAyLjAzLDUyOS4wMjQ0IDU1MC42MDE2LDUxNy41NTc2IDUwMy40NTE2LDUxMC4zNzc2IiBmaWxsPSJub25lIiBpZD0iQmFuY29EZURhZG9zLXRvLUFudW5jaW9SZXBvc2l0b3J5LTEiIHN0eWxlPSJzdHJva2U6IzE4MTgxODtzdHJva2Utd2lkdGg6MTsiLz48cG9seWdvbiBmaWxsPSIjMTgxODE4IiBwb2ludHM9IjQ5Ny41Miw1MDkuNDc0NCw1MDUuODE1Myw1MTQuNzgzNyw1MDIuNDYzLDUxMC4yMjcxLDUwNy4wMTk2LDUwNi44NzQ5LDQ5Ny41Miw1MDkuNDc0NCIgc3R5bGU9InN0cm9rZTojMTgxODE4O3N0cm9rZS13aWR0aDoxOyIvPjx0ZXh0IGZpbGw9IiMwMDAwMDAiIGZvbnQtZmFtaWx5PSJzYW5zLXNlcmlmIiBmb250LXNpemU9IjEzIiBmb250LXdlaWdodD0iYm9sZCIgbGVuZ3RoQWRqdXN0PSJzcGFjaW5nIiB0ZXh0TGVuZ3RoPSIxMTciIHg9IjYyNC44MyIgeT0iNTYxLjI3MzQiPjguMjogQ29uZmlybWEmIzIzMTsmIzIyNztvKCk8L3RleHQ+PC9nPjwhLS1saW5rIEFkbWluU2VydmljZSB0byBJbnRlcmZhY2VBZG1pbi0tPjxnIGNsYXNzPSJsaW5rIiBkYXRhLWVudGl0eS0xPSJBZG1pblNlcnZpY2UiIGRhdGEtZW50aXR5LTI9IkludGVyZmFjZUFkbWluIiBkYXRhLXNvdXJjZS1saW5lPSIyNyIgZGF0YS11aWQ9ImxuazE4IiBpZD0ibGlua19BZG1pblNlcnZpY2VfSW50ZXJmYWNlQWRtaW4iPjxwYXRoIGNvZGVMaW5lPSIyNyIgZD0iTTY4Mi4zOSwzNzIuNjc0NCBDNzA0LjQxLDM1Ni41MTQ0IDczNC42NywzMjkuODc0NCA3NDcuODMsMjk3Ljk4NDQgQzc2NS45NCwyNTQuMDk0NCA3MjEuMzgxOCwyMTQuMzUxNiA2ODguNDYxOCwxOTEuNTQxNiIgZmlsbD0ibm9uZSIgaWQ9IkFkbWluU2VydmljZS10by1JbnRlcmZhY2VBZG1pbiIgc3R5bGU9InN0cm9rZTojMTgxODE4O3N0cm9rZS13aWR0aDoxOyIvPjxwb2x5Z29uIGZpbGw9IiMxODE4MTgiIHBvaW50cz0iNjgzLjUzLDE4OC4xMjQ0LDY4OC42NDk2LDE5Ni41MzgxLDY4Ny42Mzk4LDE5MC45NzIsNjkzLjIwNTgsMTg5Ljk2MjMsNjgzLjUzLDE4OC4xMjQ0IiBzdHlsZT0ic3Ryb2tlOiMxODE4MTg7c3Ryb2tlLXdpZHRoOjE7Ii8+PHRleHQgZmlsbD0iIzAwMDAwMCIgZm9udC1mYW1pbHk9InNhbnMtc2VyaWYiIGZvbnQtc2l6ZT0iMTMiIGZvbnQtd2VpZ2h0PSJib2xkIiBsZW5ndGhBZGp1c3Q9InNwYWNpbmciIHRleHRMZW5ndGg9IjE4OC41IiB4PSI3NTIuODMiIHk9IjI4Ni4yNzM0Ij42OiBleGliaXJBbnVuY2lvUGFyYURlY2lzYW8oKTwvdGV4dD48L2c+PCEtLWxpbmsgSW50ZXJmYWNlQWRtaW4gdG8gQWRtaW5TZXJ2aWNlLS0+PGcgY2xhc3M9ImxpbmsiIGRhdGEtZW50aXR5LTE9IkludGVyZmFjZUFkbWluIiBkYXRhLWVudGl0eS0yPSJBZG1pblNlcnZpY2UiIGRhdGEtc291cmNlLWxpbmU9IjMxIiBkYXRhLXVpZD0ibG5rMjEiIGlkPSJsaW5rX0ludGVyZmFjZUFkbWluX0FkbWluU2VydmljZSI+PHBhdGggY29kZUxpbmU9IjMxIiBkPSJNNjA1LjM4LDE4OC4wMTQ0IEM1NTAuNTMsMjA4LjY0NDQgNDc1LjE4LDI0Ny40NjQ0IDUwMy44MywyOTcuOTg0NCBDNTI1Ljg5LDMzNi44ODQ0IDU2Ni4xODM3LDM1OC44ODY4IDYwMS45ODM3LDM3Mi41MzY4IiBmaWxsPSJub25lIiBpZD0iSW50ZXJmYWNlQWRtaW4tdG8tQWRtaW5TZXJ2aWNlIiBzdHlsZT0ic3Ryb2tlOiMxODE4MTg7c3Ryb2tlLXdpZHRoOjE7Ii8+PHBvbHlnb24gZmlsbD0iIzE4MTgxOCIgcG9pbnRzPSI2MDcuNTksMzc0LjY3NDQsNjAwLjYwNTYsMzY3LjczMDQsNjAyLjkxODEsMzcyLjg5Myw1OTcuNzU1NSwzNzUuMjA1NSw2MDcuNTksMzc0LjY3NDQiIHN0eWxlPSJzdHJva2U6IzE4MTgxODtzdHJva2Utd2lkdGg6MTsiLz48dGV4dCBmaWxsPSIjMDAwMDAwIiBmb250LWZhbWlseT0ic2Fucy1zZXJpZiIgZm9udC1zaXplPSIxMyIgZm9udC13ZWlnaHQ9ImJvbGQiIGxlbmd0aEFkanVzdD0ic3BhY2luZyIgdGV4dExlbmd0aD0iMjM0IiB4PSI1MDQuODMiIHk9IjI4Ni4yNzM0Ij43LjE6IGF0dWFsaXphclN0YXR1cyhpZCwgbm92b1N0YXR1cyk8L3RleHQ+PC9nPjwhLS1saW5rIEFkbWluU2VydmljZSB0byBJbnRlcmZhY2VBZG1pbi0tPjxnIGNsYXNzPSJsaW5rIiBkYXRhLWVudGl0eS0xPSJBZG1pblNlcnZpY2UiIGRhdGEtZW50aXR5LTI9IkludGVyZmFjZUFkbWluIiBkYXRhLXNvdXJjZS1saW5lPSIzOCIgZGF0YS11aWQ9ImxuazI2IiBpZD0ibGlua19BZG1pblNlcnZpY2VfSW50ZXJmYWNlQWRtaW4iPjxwYXRoIGNvZGVMaW5lPSIzOCIgZD0iTTcwNS44OSwzODYuNDk0NCBDODA1LjA2LDM3OC41NjQ0IDEwMTQuNjUsMzUxLjE0NDQgOTQ5LjgzLDI2Mi45ODQ0IEM5MjEuNjEsMjI0LjYxNDQgNzk1Ljg0OTcsMTk2LjMwNyA3MTguOTU5NywxODIuMDY3IiBmaWxsPSJub25lIiBpZD0iQWRtaW5TZXJ2aWNlLXRvLUludGVyZmFjZUFkbWluLTEiIHN0eWxlPSJzdHJva2U6IzE4MTgxODtzdHJva2Utd2lkdGg6MTsiLz48cG9seWdvbiBmaWxsPSIjMTgxODE4IiBwb2ludHM9IjcxMy4wNiwxODAuOTc0NCw3MjEuMTgxMSwxODYuNTQ2NCw3MTcuOTc2NCwxODEuODg0OSw3MjIuNjM3OSwxNzguNjgwMiw3MTMuMDYsMTgwLjk3NDQiIHN0eWxlPSJzdHJva2U6IzE4MTgxODtzdHJva2Utd2lkdGg6MTsiLz48dGV4dCBmaWxsPSIjMDAwMDAwIiBmb250LWZhbWlseT0ic2Fucy1zZXJpZiIgZm9udC1zaXplPSIxMyIgZm9udC13ZWlnaHQ9ImJvbGQiIGxlbmd0aEFkanVzdD0ic3BhY2luZyIgdGV4dExlbmd0aD0iMTE3IiB4PSI5NjIuODMiIHk9IjI4Ni4yNzM0Ij45OiBjb25maXJtYXJBY2FvKCk8L3RleHQ+PC9nPjwhLS1TUkM9W2JMTERTemVtNEJ0eEwtb2pYV2FLYWIyODN2c1hjN0d3YXhRUEVFYnppR0xMbnpPb2Fpb2FfSml2ejhWYVp0S2IxT1VsQ2tHWTYtcy1qc3pOSnlQQU1tZjg5SXVxTFdZNVcwYkxqUDh2Rmx6elZnODRGV2paLUdLdUs2aWlJNGs0LTY3STZ2dTFob0VfTmhjcnRzajVxSmo4bkxtZ3dTNUdhODdsaXJfMmFlYzhkeGM1U0w1bnM1WEZqVHh5ZWdwR1N5bzVac3diSmFYUEpNS2Z6RFBzOWxIQXZnQlBLeE5BOVRzOTlIYmZJVnpVMXB3WG9ZYUxBTFRoOTBHaVZJTmJLaDRJb2Y5SnRrYnF1QmdpN3liRE9QbUJPcnBOTXNhR3p3NDNib3NONnFMUmxWM01udnI2ODg1c2t2LTBlTEJjcWc4RWYzdU1qemhqUTJWVENVbXE3SVl3Y29HZmNmeXBHYnJ1WWp0eVhrRGJHZnhXRjg2YjliVlNRSzJBYVBVNE1vazRIV3JLRHJ0Z1hkRURUdUk3OWtROUJuQjhJUGN3UDVxUHJlTjhTZXJCZU90TlRYMXNLRTFiMGZmVGVYTmc2cmdPUU1SSHJlNWF6czIyd0UybFVDMmRtUnhSRTh2RHNOa2t5Qks2MlNuZ2FfQ2FHbFdNRFZ4MEtYUWVPcmR1X2xUbVpjdEpJZTc4N0tpc2xQYkV4alViNkJvTFRhSDV6X29yUHZ5U194X3F0aG02dE9qTnowaWNKNmpsMjBTaS1JNDF5SVhkU2RDMmdTWWJHSmZnb3lSZ2RpSHJadWtRWlJXNUZrck0zNWMyTWFia19HS3dQZUVrS0ItXzRuTWpYM3VjT3RDR0d3XzJyZG4tVnpZMm1KUW9FMEQ1QW1lXzN1X2J5QWNDLUFBbVVyY3pSOUpqaXZ0ZVp2N0p6ZDJSWmstZFJfVjdvRmMzeF9MU3dZZ3VfSXQtNjNiX1BCTl90OXBrWW9qX2N0dDV5OWF1c0dwenRqZkl0eVpBRVZ6eENGblFBWW1UbnB5MF0tLT48L2c+PC9zdmc+;" vertex="1" parent="1">
            <mxGeometry x="-1451.5" y="-314" width="1214" height="633" as="geometry" />
          </mxCell>
        </UserObject>
        <UserObject label="" plantUmlData="{&quot;data&quot;:&quot;@startuml Comunicacao_AgregacaoDeDados\n\ntitle Diagrama de Comunicação: Agregação de Dados (UC11)\n\n&#39; Definição dos Objetos\nobject Job\nobject Controller\nobject Service\nobject FonteExterna\nobject BD\nobject Monitor\nobject Marketplace\n\n&#39; Adiciona Marketplace, pois é uma Fonte Externa acessada (2)\nFonteExterna -[hidden]- Marketplace\n\n&#39; --- Fluxo de Coleta e Persistência (1 - 3.1) ---\n\nJob --&gt; Controller : **1: iniciarColetaGeral()**\nController --&gt; Service : **1.1: orquestrarColeta()**\nService --&gt; Marketplace : **2: chamarAPI_WebScraper()**\nMarketplace --&gt; Service : **2.1: retornarDadosBrutos(lista)**\nService --&gt; Service : **2.2: processarNormalizarDados()**\nService --&gt; BD : **3: persistirAnuncios(dadosNormalizados)**\nBD --&gt; Service : **3.1: ConfirmaPersistencia()**\n\n&#39; --- Fluxo de Monitoramento (4 - 4.2) ---\n\nService --&gt; Monitor : **4: registrarStatus(Sucesso/Falha)**\nMonitor --&gt; BD : **4.1: LogarExecucao()**\nBD --&gt; Monitor : **4.2: Confirmação()**\n\n&#39; --- Finalização (5 - 5.1) ---\n\nService --&gt; Controller : **5: retornarResumoExecucao()**\nController --&gt; Job : **5.1: NotificarFimDoJob()**\n\n@enduml&quot;,&quot;format&quot;:&quot;svg&quot;}" id="lkofwXcr7X9-6kQjYrpD-3">
          <mxCell style="shape=image;noLabel=1;verticalAlign=top;aspect=fixed;imageAspect=0;image=data:image/svg+xml,PHN2ZyB4bWxucz0iaHR0cDovL3d3dy53My5vcmcvMjAwMC9zdmciIHhtbG5zOnhsaW5rPSJodHRwOi8vd3d3LnczLm9yZy8xOTk5L3hsaW5rIiBjb250ZW50U3R5bGVUeXBlPSJ0ZXh0L2NzcyIgZGF0YS1kaWFncmFtLXR5cGU9IkNMQVNTIiBoZWlnaHQ9IjUyM3B4IiBwcmVzZXJ2ZUFzcGVjdFJhdGlvPSJub25lIiBzdHlsZT0id2lkdGg6MTA1MXB4O2hlaWdodDo1MjNweDtiYWNrZ3JvdW5kOiNGRkZGRkY7IiB2ZXJzaW9uPSIxLjEiIHZpZXdCb3g9IjAgMCAxMDUxIDUyMyIgd2lkdGg9IjEwNTFweCIgem9vbUFuZFBhbj0ibWFnbmlmeSI+PHRpdGxlPkRpYWdyYW1hIGRlIENvbXVuaWNhJiMyMzE7JiMyMjc7bzogQWdyZWdhJiMyMzE7JiMyMjc7byBkZSBEYWRvcyAoVUMxMSk8L3RpdGxlPjxkZWZzLz48Zz48dGV4dCBmaWxsPSIjMDAwMDAwIiBmb250LWZhbWlseT0ic2Fucy1zZXJpZiIgZm9udC1zaXplPSIxNCIgZm9udC13ZWlnaHQ9ImJvbGQiIGxlbmd0aEFkanVzdD0ic3BhY2luZyIgdGV4dExlbmd0aD0iMzUwIiB4PSIzNDMuNzQ1IiB5PSIyMy4yMzQ0Ij5EaWFncmFtYSBkZSBDb211bmljYSYjMjMxOyYjMjI3O286IEFncmVnYSYjMjMxOyYjMjI3O28gZGUgRGFkb3MgKFVDMTEpPC90ZXh0PjxnIGNsYXNzPSJlbnRpdHkiIGRhdGEtZW50aXR5PSJKb2IiIGRhdGEtc291cmNlLWxpbmU9IjQiIGRhdGEtdWlkPSJlbnQwMDAyIiBpZD0iZW50aXR5X0pvYiI+PHJlY3QgZmlsbD0iI0YxRjFGMSIgaGVpZ2h0PSIzNC45ODQ0IiByeD0iMi41IiByeT0iMi41IiBzdHlsZT0ic3Ryb2tlOiMxODE4MTg7c3Ryb2tlLXdpZHRoOjAuNTsiIHdpZHRoPSIzNSIgeD0iNDkwLjk5IiB5PSI0Mi45ODQ0Ii8+PHRleHQgZmlsbD0iIzAwMDAwMCIgZm9udC1mYW1pbHk9InNhbnMtc2VyaWYiIGZvbnQtc2l6ZT0iMTQiIGxlbmd0aEFkanVzdD0ic3BhY2luZyIgdGV4dExlbmd0aD0iMjEiIHg9IjQ5Ny45OSIgeT0iNTguMjE4OCI+Sm9iPC90ZXh0PjxsaW5lIHN0eWxlPSJzdHJva2U6IzE4MTgxODtzdHJva2Utd2lkdGg6MC41OyIgeDE9IjQ5MS45OSIgeDI9IjUyNC45OSIgeTE9IjYxLjk2ODgiIHkyPSI2MS45Njg4Ii8+PC9nPjxnIGNsYXNzPSJlbnRpdHkiIGRhdGEtZW50aXR5PSJDb250cm9sbGVyIiBkYXRhLXNvdXJjZS1saW5lPSI1IiBkYXRhLXVpZD0iZW50MDAwMyIgaWQ9ImVudGl0eV9Db250cm9sbGVyIj48cmVjdCBmaWxsPSIjRjFGMUYxIiBoZWlnaHQ9IjM0Ljk4NDQiIHJ4PSIyLjUiIHJ5PSIyLjUiIHN0eWxlPSJzdHJva2U6IzE4MTgxODtzdHJva2Utd2lkdGg6MC41OyIgd2lkdGg9Ijg0IiB4PSI0NjYuNDkiIHk9IjE1Mi45ODQ0Ii8+PHRleHQgZmlsbD0iIzAwMDAwMCIgZm9udC1mYW1pbHk9InNhbnMtc2VyaWYiIGZvbnQtc2l6ZT0iMTQiIGxlbmd0aEFkanVzdD0ic3BhY2luZyIgdGV4dExlbmd0aD0iNzAiIHg9IjQ3My40OSIgeT0iMTY4LjIxODgiPkNvbnRyb2xsZXI8L3RleHQ+PGxpbmUgc3R5bGU9InN0cm9rZTojMTgxODE4O3N0cm9rZS13aWR0aDowLjU7IiB4MT0iNDY3LjQ5IiB4Mj0iNTQ5LjQ5IiB5MT0iMTcxLjk2ODgiIHkyPSIxNzEuOTY4OCIvPjwvZz48ZyBjbGFzcz0iZW50aXR5IiBkYXRhLWVudGl0eT0iU2VydmljZSIgZGF0YS1zb3VyY2UtbGluZT0iNiIgZGF0YS11aWQ9ImVudDAwMDQiIGlkPSJlbnRpdHlfU2VydmljZSI+PHJlY3QgZmlsbD0iI0YxRjFGMSIgaGVpZ2h0PSIzNC45ODQ0IiByeD0iMi41IiByeT0iMi41IiBzdHlsZT0ic3Ryb2tlOiMxODE4MTg7c3Ryb2tlLXdpZHRoOjAuNTsiIHdpZHRoPSI2MyIgeD0iNDc2Ljk5IiB5PSIyNjIuOTg0NCIvPjx0ZXh0IGZpbGw9IiMwMDAwMDAiIGZvbnQtZmFtaWx5PSJzYW5zLXNlcmlmIiBmb250LXNpemU9IjE0IiBsZW5ndGhBZGp1c3Q9InNwYWNpbmciIHRleHRMZW5ndGg9IjQ5IiB4PSI0ODMuOTkiIHk9IjI3OC4yMTg4Ij5TZXJ2aWNlPC90ZXh0PjxsaW5lIHN0eWxlPSJzdHJva2U6IzE4MTgxODtzdHJva2Utd2lkdGg6MC41OyIgeDE9IjQ3Ny45OSIgeDI9IjUzOC45OSIgeTE9IjI4MS45Njg4IiB5Mj0iMjgxLjk2ODgiLz48L2c+PGcgY2xhc3M9ImVudGl0eSIgZGF0YS1lbnRpdHk9IkZvbnRlRXh0ZXJuYSIgZGF0YS1zb3VyY2UtbGluZT0iNyIgZGF0YS11aWQ9ImVudDAwMDUiIGlkPSJlbnRpdHlfRm9udGVFeHRlcm5hIj48cmVjdCBmaWxsPSIjRjFGMUYxIiBoZWlnaHQ9IjM0Ljk4NDQiIHJ4PSIyLjUiIHJ5PSIyLjUiIHN0eWxlPSJzdHJva2U6IzE4MTgxODtzdHJva2Utd2lkdGg6MC41OyIgd2lkdGg9Ijk4IiB4PSI5NDcuNDkiIHk9IjI2Mi45ODQ0Ii8+PHRleHQgZmlsbD0iIzAwMDAwMCIgZm9udC1mYW1pbHk9InNhbnMtc2VyaWYiIGZvbnQtc2l6ZT0iMTQiIGxlbmd0aEFkanVzdD0ic3BhY2luZyIgdGV4dExlbmd0aD0iODQiIHg9Ijk1NC40OSIgeT0iMjc4LjIxODgiPkZvbnRlRXh0ZXJuYTwvdGV4dD48bGluZSBzdHlsZT0ic3Ryb2tlOiMxODE4MTg7c3Ryb2tlLXdpZHRoOjAuNTsiIHgxPSI5NDguNDkiIHgyPSIxMDQ0LjQ5IiB5MT0iMjgxLjk2ODgiIHkyPSIyODEuOTY4OCIvPjwvZz48ZyBjbGFzcz0iZW50aXR5IiBkYXRhLWVudGl0eT0iQkQiIGRhdGEtc291cmNlLWxpbmU9IjgiIGRhdGEtdWlkPSJlbnQwMDA2IiBpZD0iZW50aXR5X0JEIj48cmVjdCBmaWxsPSIjRjFGMUYxIiBoZWlnaHQ9IjM0Ljk4NDQiIHJ4PSIyLjUiIHJ5PSIyLjUiIHN0eWxlPSJzdHJva2U6IzE4MTgxODtzdHJva2Utd2lkdGg6MC41OyIgd2lkdGg9IjI4IiB4PSIyMzcuNDkiIHk9IjM3Mi45ODQ0Ii8+PHRleHQgZmlsbD0iIzAwMDAwMCIgZm9udC1mYW1pbHk9InNhbnMtc2VyaWYiIGZvbnQtc2l6ZT0iMTQiIGxlbmd0aEFkanVzdD0ic3BhY2luZyIgdGV4dExlbmd0aD0iMTQiIHg9IjI0NC40OSIgeT0iMzg4LjIxODgiPkJEPC90ZXh0PjxsaW5lIHN0eWxlPSJzdHJva2U6IzE4MTgxODtzdHJva2Utd2lkdGg6MC41OyIgeDE9IjIzOC40OSIgeDI9IjI2NC40OSIgeTE9IjM5MS45Njg4IiB5Mj0iMzkxLjk2ODgiLz48L2c+PGcgY2xhc3M9ImVudGl0eSIgZGF0YS1lbnRpdHk9Ik1vbml0b3IiIGRhdGEtc291cmNlLWxpbmU9IjkiIGRhdGEtdWlkPSJlbnQwMDA3IiBpZD0iZW50aXR5X01vbml0b3IiPjxyZWN0IGZpbGw9IiNGMUYxRjEiIGhlaWdodD0iMzQuOTg0NCIgcng9IjIuNSIgcnk9IjIuNSIgc3R5bGU9InN0cm9rZTojMTgxODE4O3N0cm9rZS13aWR0aDowLjU7IiB3aWR0aD0iNjMiIHg9IjMyMS45OSIgeT0iNDgyLjk4NDQiLz48dGV4dCBmaWxsPSIjMDAwMDAwIiBmb250LWZhbWlseT0ic2Fucy1zZXJpZiIgZm9udC1zaXplPSIxNCIgbGVuZ3RoQWRqdXN0PSJzcGFjaW5nIiB0ZXh0TGVuZ3RoPSI0OSIgeD0iMzI4Ljk5IiB5PSI0OTguMjE4OCI+TW9uaXRvcjwvdGV4dD48bGluZSBzdHlsZT0ic3Ryb2tlOiMxODE4MTg7c3Ryb2tlLXdpZHRoOjAuNTsiIHgxPSIzMjIuOTkiIHgyPSIzODMuOTkiIHkxPSI1MDEuOTY4OCIgeTI9IjUwMS45Njg4Ii8+PC9nPjxnIGNsYXNzPSJlbnRpdHkiIGRhdGEtZW50aXR5PSJNYXJrZXRwbGFjZSIgZGF0YS1zb3VyY2UtbGluZT0iMTAiIGRhdGEtdWlkPSJlbnQwMDA4IiBpZD0iZW50aXR5X01hcmtldHBsYWNlIj48cmVjdCBmaWxsPSIjRjFGMUYxIiBoZWlnaHQ9IjM0Ljk4NDQiIHJ4PSIyLjUiIHJ5PSIyLjUiIHN0eWxlPSJzdHJva2U6IzE4MTgxODtzdHJva2Utd2lkdGg6MC41OyIgd2lkdGg9IjkxIiB4PSI3NTkuOTkiIHk9IjM3Mi45ODQ0Ii8+PHRleHQgZmlsbD0iIzAwMDAwMCIgZm9udC1mYW1pbHk9InNhbnMtc2VyaWYiIGZvbnQtc2l6ZT0iMTQiIGxlbmd0aEFkanVzdD0ic3BhY2luZyIgdGV4dExlbmd0aD0iNzciIHg9Ijc2Ni45OSIgeT0iMzg4LjIxODgiPk1hcmtldHBsYWNlPC90ZXh0PjxsaW5lIHN0eWxlPSJzdHJva2U6IzE4MTgxODtzdHJva2Utd2lkdGg6MC41OyIgeDE9Ijc2MC45OSIgeDI9Ijg0OS45OSIgeTE9IjM5MS45Njg4IiB5Mj0iMzkxLjk2ODgiLz48L2c+PCEtLWxpbmsgRm9udGVFeHRlcm5hIHRvIE1hcmtldHBsYWNlLS0+PCEtLWxpbmsgSm9iIHRvIENvbnRyb2xsZXItLT48ZyBjbGFzcz0ibGluayIgZGF0YS1lbnRpdHktMT0iSm9iIiBkYXRhLWVudGl0eS0yPSJDb250cm9sbGVyIiBkYXRhLXNvdXJjZS1saW5lPSIxNyIgZGF0YS11aWQ9ImxuazEwIiBpZD0ibGlua19Kb2JfQ29udHJvbGxlciI+PHBhdGggY29kZUxpbmU9IjE3IiBkPSJNNDkwLjk1LDY0LjA2NDQgQzQ2Ny44OCw2OC40OTQ0IDQyOC4yLDc5Ljk3NDQgNDEwLjQ5LDEwNy45ODQ0IEMzOTMuOTUsMTM0LjEyNDQgNDI3LjAwMDEsMTQ5LjQ2NDEgNDYwLjU2MDEsMTU4LjgxNDEiIGZpbGw9Im5vbmUiIGlkPSJKb2ItdG8tQ29udHJvbGxlciIgc3R5bGU9InN0cm9rZTojMTgxODE4O3N0cm9rZS13aWR0aDoxOyIvPjxwb2x5Z29uIGZpbGw9IiMxODE4MTgiIHBvaW50cz0iNDY2LjM0LDE2MC40MjQ0LDQ1OC43NDM3LDE1NC4xNTU3LDQ2MS41MjM0LDE1OS4wODI1LDQ1Ni41OTY3LDE2MS44NjIyLDQ2Ni4zNCwxNjAuNDI0NCIgc3R5bGU9InN0cm9rZTojMTgxODE4O3N0cm9rZS13aWR0aDoxOyIvPjx0ZXh0IGZpbGw9IiMwMDAwMDAiIGZvbnQtZmFtaWx5PSJzYW5zLXNlcmlmIiBmb250LXNpemU9IjEzIiBmb250LXdlaWdodD0iYm9sZCIgbGVuZ3RoQWRqdXN0PSJzcGFjaW5nIiB0ZXh0TGVuZ3RoPSIxNDkuNSIgeD0iNDExLjQ5IiB5PSIxMjEuMjczNCI+MTogaW5pY2lhckNvbGV0YUdlcmFsKCk8L3RleHQ+PC9nPjwhLS1saW5rIENvbnRyb2xsZXIgdG8gSm9iLS0+PGcgY2xhc3M9ImxpbmsiIGRhdGEtZW50aXR5LTE9IkNvbnRyb2xsZXIiIGRhdGEtZW50aXR5LTI9IkpvYiIgZGF0YS1zb3VyY2UtbGluZT0iMzQiIGRhdGEtdWlkPSJsbmsyMSIgaWQ9ImxpbmtfQ29udHJvbGxlcl9Kb2IiPjxwYXRoIGNvZGVMaW5lPSIzNCIgZD0iTTU0MC42OCwxNTIuOTA0NCBDNTU3Ljg0LDE0MS42MzQ0IDU3My44NSwxMjUuNjA0NCA1NjUuNDksMTA3Ljk4NDQgQzU1Ny4zOCw5MC45MTQ0IDU0NC43OTg2LDgxLjAzMDIgNTMxLjIyODYsNzMuMjEwMiIgZmlsbD0ibm9uZSIgaWQ9IkNvbnRyb2xsZXItdG8tSm9iIiBzdHlsZT0ic3Ryb2tlOiMxODE4MTg7c3Ryb2tlLXdpZHRoOjE7Ii8+PHBvbHlnb24gZmlsbD0iIzE4MTgxOCIgcG9pbnRzPSI1MjYuMDMsNzAuMjE0NCw1MzEuODMwNyw3OC4xNzM4LDUzMC4zNjIxLDcyLjcxMDksNTM1LjgyNTEsNzEuMjQyMyw1MjYuMDMsNzAuMjE0NCIgc3R5bGU9InN0cm9rZTojMTgxODE4O3N0cm9rZS13aWR0aDoxOyIvPjx0ZXh0IGZpbGw9IiMwMDAwMDAiIGZvbnQtZmFtaWx5PSJzYW5zLXNlcmlmIiBmb250LXNpemU9IjEzIiBmb250LXdlaWdodD0iYm9sZCIgbGVuZ3RoQWRqdXN0PSJzcGFjaW5nIiB0ZXh0TGVuZ3RoPSIxNTYiIHg9IjU2OS40OSIgeT0iMTIxLjI3MzQiPjUuMTogTm90aWZpY2FyRmltRG9Kb2IoKTwvdGV4dD48L2c+PCEtLWxpbmsgQ29udHJvbGxlciB0byBTZXJ2aWNlLS0+PGcgY2xhc3M9ImxpbmsiIGRhdGEtZW50aXR5LTE9IkNvbnRyb2xsZXIiIGRhdGEtZW50aXR5LTI9IlNlcnZpY2UiIGRhdGEtc291cmNlLWxpbmU9IjE4IiBkYXRhLXVpZD0ibG5rMTEiIGlkPSJsaW5rX0NvbnRyb2xsZXJfU2VydmljZSI+PHBhdGggY29kZUxpbmU9IjE4IiBkPSJNNDY2LjM5LDE4MC4zMjQ0IEM0NDUuNzksMTg3LjAwNDQgNDIyLjgyLDE5OC40ODQ0IDQxMC40OSwyMTcuOTg0NCBDMzkyLjE4LDI0Ni45MzQ0IDQzNS45MDEyLDI2My4xNzEyIDQ3MS4wNDEyLDI3MS43NTEyIiBmaWxsPSJub25lIiBpZD0iQ29udHJvbGxlci10by1TZXJ2aWNlIiBzdHlsZT0ic3Ryb2tlOiMxODE4MTg7c3Ryb2tlLXdpZHRoOjE7Ii8+PHBvbHlnb24gZmlsbD0iIzE4MTgxOCIgcG9pbnRzPSI0NzYuODcsMjczLjE3NDQsNDY5LjA3NTYsMjY3LjE1MzcsNDcyLjAxMjcsMjcxLjk4ODQsNDY3LjE3ODEsMjc0LjkyNTQsNDc2Ljg3LDI3My4xNzQ0IiBzdHlsZT0ic3Ryb2tlOiMxODE4MTg7c3Ryb2tlLXdpZHRoOjE7Ii8+PHRleHQgZmlsbD0iIzAwMDAwMCIgZm9udC1mYW1pbHk9InNhbnMtc2VyaWYiIGZvbnQtc2l6ZT0iMTMiIGZvbnQtd2VpZ2h0PSJib2xkIiBsZW5ndGhBZGp1c3Q9InNwYWNpbmciIHRleHRMZW5ndGg9IjE0OS41IiB4PSI0MTEuNDkiIHk9IjIzMS4yNzM0Ij4xLjE6IG9ycXVlc3RyYXJDb2xldGEoKTwvdGV4dD48L2c+PCEtLWxpbmsgU2VydmljZSB0byBDb250cm9sbGVyLS0+PGcgY2xhc3M9ImxpbmsiIGRhdGEtZW50aXR5LTE9IlNlcnZpY2UiIGRhdGEtZW50aXR5LTI9IkNvbnRyb2xsZXIiIGRhdGEtc291cmNlLWxpbmU9IjMzIiBkYXRhLXVpZD0ibG5rMjAiIGlkPSJsaW5rX1NlcnZpY2VfQ29udHJvbGxlciI+PHBhdGggY29kZUxpbmU9IjMzIiBkPSJNNTQwLjMsMjYzLjE1NDQgQzU1Ny42LDI1MS44NzQ0IDU3My45MSwyMzUuNzM0NCA1NjUuNDksMjE3Ljk4NDQgQzU1OS42OCwyMDUuNzU0NCA1NTMuNzg4NywxOTkuMTc3IDU0My4xNTg3LDE5MS41NjciIGZpbGw9Im5vbmUiIGlkPSJTZXJ2aWNlLXRvLUNvbnRyb2xsZXIiIHN0eWxlPSJzdHJva2U6IzE4MTgxODtzdHJva2Utd2lkdGg6MTsiLz48cG9seWdvbiBmaWxsPSIjMTgxODE4IiBwb2ludHM9IjUzOC4yOCwxODguMDc0NCw1NDMuMjY5NiwxOTYuNTY1OCw1NDIuMzQ1NiwxOTAuOTg0OSw1NDcuOTI2NCwxOTAuMDYwOSw1MzguMjgsMTg4LjA3NDQiIHN0eWxlPSJzdHJva2U6IzE4MTgxODtzdHJva2Utd2lkdGg6MTsiLz48dGV4dCBmaWxsPSIjMDAwMDAwIiBmb250LWZhbWlseT0ic2Fucy1zZXJpZiIgZm9udC1zaXplPSIxMyIgZm9udC13ZWlnaHQ9ImJvbGQiIGxlbmd0aEFkanVzdD0ic3BhY2luZyIgdGV4dExlbmd0aD0iMTc1LjUiIHg9IjU2OS40OSIgeT0iMjMxLjI3MzQiPjU6IHJldG9ybmFyUmVzdW1vRXhlY3VjYW8oKTwvdGV4dD48L2c+PCEtLWxpbmsgU2VydmljZSB0byBNYXJrZXRwbGFjZS0tPjxnIGNsYXNzPSJsaW5rIiBkYXRhLWVudGl0eS0xPSJTZXJ2aWNlIiBkYXRhLWVudGl0eS0yPSJNYXJrZXRwbGFjZSIgZGF0YS1zb3VyY2UtbGluZT0iMTkiIGRhdGEtdWlkPSJsbmsxMiIgaWQ9ImxpbmtfU2VydmljZV9NYXJrZXRwbGFjZSI+PHBhdGggY29kZUxpbmU9IjE5IiBkPSJNNTE4LjczLDI5OC4xNTQ0IEM1MjguNDQsMzEyLjQzNDQgNTQ0LjM0LDMzMi4zMTQ0IDU2My40OSwzNDIuOTg0NCBDNjMwLjEyLDM4MC4xMTQ0IDY1Ny43MSwzNTcuOTA0NCA3MzIuNDksMzcyLjk4NDQgQzc0MS4yNywzNzQuNzU0NCA3NDQuNzczOCwzNzUuNDY4NiA3NTMuNzQzOCwzNzcuNDY4NiIgZmlsbD0ibm9uZSIgaWQ9IlNlcnZpY2UtdG8tTWFya2V0cGxhY2UiIHN0eWxlPSJzdHJva2U6IzE4MTgxODtzdHJva2Utd2lkdGg6MTsiLz48cG9seWdvbiBmaWxsPSIjMTgxODE4IiBwb2ludHM9Ijc1OS42LDM3OC43NzQ0LDc1MS42ODYyLDM3Mi45MTE2LDc1NC43MTk4LDM3Ny42ODYzLDc0OS45NDUyLDM4MC43MTk5LDc1OS42LDM3OC43NzQ0IiBzdHlsZT0ic3Ryb2tlOiMxODE4MTg7c3Ryb2tlLXdpZHRoOjE7Ii8+PHRleHQgZmlsbD0iIzAwMDAwMCIgZm9udC1mYW1pbHk9InNhbnMtc2VyaWYiIGZvbnQtc2l6ZT0iMTMiIGZvbnQtd2VpZ2h0PSJib2xkIiBsZW5ndGhBZGp1c3Q9InNwYWNpbmciIHRleHRMZW5ndGg9IjE2Mi41IiB4PSI1NjQuNDkiIHk9IjM0MS4yNzM0Ij4yOiBjaGFtYXJBUElfV2ViU2NyYXBlcigpPC90ZXh0PjwvZz48IS0tbGluayBNYXJrZXRwbGFjZSB0byBTZXJ2aWNlLS0+PGcgY2xhc3M9ImxpbmsiIGRhdGEtZW50aXR5LTE9Ik1hcmtldHBsYWNlIiBkYXRhLWVudGl0eS0yPSJTZXJ2aWNlIiBkYXRhLXNvdXJjZS1saW5lPSIyMCIgZGF0YS11aWQ9ImxuazEzIiBpZD0ibGlua19NYXJrZXRwbGFjZV9TZXJ2aWNlIj48cGF0aCBjb2RlTGluZT0iMjAiIGQ9Ik03OTAuMDksMzcyLjc0NDQgQzc3Ni4xNSwzNTguNjM0NCA3NTQuMzUsMzM5LjAxNDQgNzMxLjQ5LDMyNy45ODQ0IEM2NjguMDgsMjk3LjM5NDQgNTkxLjAyMDksMjg3LjM0MzIgNTQ2LjMwMDksMjgzLjc2MzIiIGZpbGw9Im5vbmUiIGlkPSJNYXJrZXRwbGFjZS10by1TZXJ2aWNlIiBzdHlsZT0ic3Ryb2tlOiMxODE4MTg7c3Ryb2tlLXdpZHRoOjE7Ii8+PHBvbHlnb24gZmlsbD0iIzE4MTgxOCIgcG9pbnRzPSI1NDAuMzIsMjgzLjI4NDQsNTQ4Ljk3MjEsMjg3Ljk4OTgsNTQ1LjMwNDEsMjgzLjY4MzQsNTQ5LjYxMDUsMjgwLjAxNTMsNTQwLjMyLDI4My4yODQ0IiBzdHlsZT0ic3Ryb2tlOiMxODE4MTg7c3Ryb2tlLXdpZHRoOjE7Ii8+PHRleHQgZmlsbD0iIzAwMDAwMCIgZm9udC1mYW1pbHk9InNhbnMtc2VyaWYiIGZvbnQtc2l6ZT0iMTMiIGZvbnQtd2VpZ2h0PSJib2xkIiBsZW5ndGhBZGp1c3Q9InNwYWNpbmciIHRleHRMZW5ndGg9IjIwMS41IiB4PSI3NTUuNDkiIHk9IjM0MS4yNzM0Ij4yLjE6IHJldG9ybmFyRGFkb3NCcnV0b3MobGlzdGEpPC90ZXh0PjwvZz48IS0tbGluayBTZXJ2aWNlIHRvIFNlcnZpY2UtLT48ZyBjbGFzcz0ibGluayIgZGF0YS1lbnRpdHktMT0iU2VydmljZSIgZGF0YS1lbnRpdHktMj0iU2VydmljZSIgZGF0YS1zb3VyY2UtbGluZT0iMjEiIGRhdGEtdWlkPSJsbmsxNCIgaWQ9ImxpbmtfU2VydmljZV9TZXJ2aWNlIj48cGF0aCBjb2RlTGluZT0iMjEiIGQ9Ik01NDAuMywyNzAuODc0NCBDNTU4LjMxLDI2OS4wMDQ0IDU3NC45OSwyNzIuMjA0NCA1NzQuOTksMjgwLjQ4NDQgQzU3NC45OSwyODguNzY0NCA1NjQuMjc3OSwyOTIuNTg0IDU0Ni4yNjc5LDI5MC43MTQiIGZpbGw9Im5vbmUiIGlkPSJTZXJ2aWNlLXRvLVNlcnZpY2UiIHN0eWxlPSJzdHJva2U6IzE4MTgxODtzdHJva2Utd2lkdGg6MTsiLz48cG9seWdvbiBmaWxsPSIjMTgxODE4IiBwb2ludHM9IjU0MC4zLDI5MC4wOTQ0LDU0OC44Mzg4LDI5NS4wMDI1LDU0NS4yNzMzLDI5MC42MTA4LDU0OS42NjUsMjg3LjA0NTIsNTQwLjMsMjkwLjA5NDQiIHN0eWxlPSJzdHJva2U6IzE4MTgxODtzdHJva2Utd2lkdGg6MTsiLz48dGV4dCBmaWxsPSIjMDAwMDAwIiBmb250LWZhbWlseT0ic2Fucy1zZXJpZiIgZm9udC1zaXplPSIxMyIgZm9udC13ZWlnaHQ9ImJvbGQiIGxlbmd0aEFkanVzdD0ic3BhY2luZyIgdGV4dExlbmd0aD0iMjAxLjUiIHg9IjU4MC45OSIgeT0iMjg2LjI3MzQiPjIuMjogcHJvY2Vzc2FyTm9ybWFsaXphckRhZG9zKCk8L3RleHQ+PC9nPjwhLS1saW5rIFNlcnZpY2UgdG8gQkQtLT48ZyBjbGFzcz0ibGluayIgZGF0YS1lbnRpdHktMT0iU2VydmljZSIgZGF0YS1lbnRpdHktMj0iQkQiIGRhdGEtc291cmNlLWxpbmU9IjIyIiBkYXRhLXVpZD0ibG5rMTUiIGlkPSJsaW5rX1NlcnZpY2VfQkQiPjxwYXRoIGNvZGVMaW5lPSIyMiIgZD0iTTQ3Ni42NywyODIuMDI0NCBDMzcxLjgxLDI4NC4xMzQ0IDQxLjkyLDI5My40ODQ0IDEwLjQ5LDMyNy45ODQ0IEM2LDMzMi45MTQ0IDYuMjQsMzM3Ljg0NDQgMTAuNDksMzQyLjk4NDQgQzM5LjY1LDM3OC4zMTQ0IDE4My44MTQ5LDM4Ni44NTI1IDIzMS4xNjQ5LDM4OC43NjI1IiBmaWxsPSJub25lIiBpZD0iU2VydmljZS10by1CRCIgc3R5bGU9InN0cm9rZTojMTgxODE4O3N0cm9rZS13aWR0aDoxOyIvPjxwb2x5Z29uIGZpbGw9IiMxODE4MTgiIHBvaW50cz0iMjM3LjE2LDM4OS4wMDQ0LDIyOC4zMjg1LDM4NC42NDQ5LDIzMi4xNjQxLDM4OC44MDI4LDIyOC4wMDYxLDM5Mi42Mzg0LDIzNy4xNiwzODkuMDA0NCIgc3R5bGU9InN0cm9rZTojMTgxODE4O3N0cm9rZS13aWR0aDoxOyIvPjx0ZXh0IGZpbGw9IiMwMDAwMDAiIGZvbnQtZmFtaWx5PSJzYW5zLXNlcmlmIiBmb250LXNpemU9IjEzIiBmb250LXdlaWdodD0iYm9sZCIgbGVuZ3RoQWRqdXN0PSJzcGFjaW5nIiB0ZXh0TGVuZ3RoPSIyNTMuNSIgeD0iMTEuNDkiIHk9IjM0MS4yNzM0Ij4zOiBwZXJzaXN0aXJBbnVuY2lvcyhkYWRvc05vcm1hbGl6YWRvcyk8L3RleHQ+PC9nPjwhLS1saW5rIEJEIHRvIFNlcnZpY2UtLT48ZyBjbGFzcz0ibGluayIgZGF0YS1lbnRpdHktMT0iQkQiIGRhdGEtZW50aXR5LTI9IlNlcnZpY2UiIGRhdGEtc291cmNlLWxpbmU9IjIzIiBkYXRhLXVpZD0ibG5rMTYiIGlkPSJsaW5rX0JEX1NlcnZpY2UiPjxwYXRoIGNvZGVMaW5lPSIyMyIgZD0iTTI2MS44LDM3Mi43NTQ0IEMyNzEuMzgsMzU4LjY1NDQgMjg2Ljk0LDMzOS4wNDQ0IDMwNS40OSwzMjcuOTg0NCBDMzU5LjgzLDI5NS41NzQ0IDQyOC43NTUsMjg2LjE2OCA0NzAuNzE1LDI4My4xOTgiIGZpbGw9Im5vbmUiIGlkPSJCRC10by1TZXJ2aWNlIiBzdHlsZT0ic3Ryb2tlOiMxODE4MTg7c3Ryb2tlLXdpZHRoOjE7Ii8+PHBvbHlnb24gZmlsbD0iIzE4MTgxOCIgcG9pbnRzPSI0NzYuNywyODIuNzc0NCw0NjcuNDQsMjc5LjQxOTgsNDcxLjcxMjUsMjgzLjEyNzQsNDY4LjAwNDksMjg3LjM5OTgsNDc2LjcsMjgyLjc3NDQiIHN0eWxlPSJzdHJva2U6IzE4MTgxODtzdHJva2Utd2lkdGg6MTsiLz48dGV4dCBmaWxsPSIjMDAwMDAwIiBmb250LWZhbWlseT0ic2Fucy1zZXJpZiIgZm9udC1zaXplPSIxMyIgZm9udC13ZWlnaHQ9ImJvbGQiIGxlbmd0aEFkanVzdD0ic3BhY2luZyIgdGV4dExlbmd0aD0iMTc1LjUiIHg9IjMwNi40OSIgeT0iMzQxLjI3MzQiPjMuMTogQ29uZmlybWFQZXJzaXN0ZW5jaWEoKTwvdGV4dD48L2c+PCEtLWxpbmsgU2VydmljZSB0byBNb25pdG9yLS0+PGcgY2xhc3M9ImxpbmsiIGRhdGEtZW50aXR5LTE9IlNlcnZpY2UiIGRhdGEtZW50aXR5LTI9Ik1vbml0b3IiIGRhdGEtc291cmNlLWxpbmU9IjI3IiBkYXRhLXVpZD0ibG5rMTciIGlkPSJsaW5rX1NlcnZpY2VfTW9uaXRvciI+PHBhdGggY29kZUxpbmU9IjI3IiBkPSJNNTA5LjEsMjk4LjA4NDQgQzUwOS40NSwzMzEuNDk0NCA1MDUuNTYsNDA3LjU0NDQgNDY2LjQ5LDQ1Mi45ODQ0IEM0NDUuODEsNDc3LjAzNDQgNDE2LjU5NzQsNDg3LjU0NDIgMzkxLjAwNzQsNDkzLjIyNDIiIGZpbGw9Im5vbmUiIGlkPSJTZXJ2aWNlLXRvLU1vbml0b3IiIHN0eWxlPSJzdHJva2U6IzE4MTgxODtzdHJva2Utd2lkdGg6MTsiLz48cG9seWdvbiBmaWxsPSIjMTgxODE4IiBwb2ludHM9IjM4NS4xNSw0OTQuNTI0NCwzOTQuODAyOSw0OTYuNDc5MSwzOTAuMDMxMiw0OTMuNDQwOSwzOTMuMDY5NCw0ODguNjY5MiwzODUuMTUsNDk0LjUyNDQiIHN0eWxlPSJzdHJva2U6IzE4MTgxODtzdHJva2Utd2lkdGg6MTsiLz48dGV4dCBmaWxsPSIjMDAwMDAwIiBmb250LWZhbWlseT0ic2Fucy1zZXJpZiIgZm9udC1zaXplPSIxMyIgZm9udC13ZWlnaHQ9ImJvbGQiIGxlbmd0aEFkanVzdD0ic3BhY2luZyIgdGV4dExlbmd0aD0iMjE0LjUiIHg9IjUwMy40OSIgeT0iMzk2LjI3MzQiPjQ6IHJlZ2lzdHJhclN0YXR1cyhTdWNlc3NvL0ZhbGhhKTwvdGV4dD48L2c+PCEtLWxpbmsgTW9uaXRvciB0byBCRC0tPjxnIGNsYXNzPSJsaW5rIiBkYXRhLWVudGl0eS0xPSJNb25pdG9yIiBkYXRhLWVudGl0eS0yPSJCRCIgZGF0YS1zb3VyY2UtbGluZT0iMjgiIGRhdGEtdWlkPSJsbmsxOCIgaWQ9ImxpbmtfTW9uaXRvcl9CRCI+PHBhdGggY29kZUxpbmU9IjI4IiBkPSJNMzQ1LjE5LDQ4Mi45MjQ0IEMzMzguMTMsNDY5Ljg0NDQgMzI3LjE1LDQ1MS41ODQ0IDMxNC40OSw0MzcuOTg0NCBDMjk5Ljg0LDQyMi4yNzQ0IDI4NC4zNzgxLDQxMS40MDgyIDI3MC43NzgxLDQwMi45NjgyIiBmaWxsPSJub25lIiBpZD0iTW9uaXRvci10by1CRCIgc3R5bGU9InN0cm9rZTojMTgxODE4O3N0cm9rZS13aWR0aDoxOyIvPjxwb2x5Z29uIGZpbGw9IiMxODE4MTgiIHBvaW50cz0iMjY1LjY4LDM5OS44MDQ0LDI3MS4yMTc5LDQwNy45NDg4LDI2OS45Mjg0LDQwMi40NDA5LDI3NS40MzYzLDQwMS4xNTE0LDI2NS42OCwzOTkuODA0NCIgc3R5bGU9InN0cm9rZTojMTgxODE4O3N0cm9rZS13aWR0aDoxOyIvPjx0ZXh0IGZpbGw9IiMwMDAwMDAiIGZvbnQtZmFtaWx5PSJzYW5zLXNlcmlmIiBmb250LXNpemU9IjEzIiBmb250LXdlaWdodD0iYm9sZCIgbGVuZ3RoQWRqdXN0PSJzcGFjaW5nIiB0ZXh0TGVuZ3RoPSIxMzAiIHg9IjMyNy40OSIgeT0iNDUxLjI3MzQiPjQuMTogTG9nYXJFeGVjdWNhbygpPC90ZXh0PjwvZz48IS0tbGluayBCRCB0byBNb25pdG9yLS0+PGcgY2xhc3M9ImxpbmsiIGRhdGEtZW50aXR5LTE9IkJEIiBkYXRhLWVudGl0eS0yPSJNb25pdG9yIiBkYXRhLXNvdXJjZS1saW5lPSIyOSIgZGF0YS11aWQ9ImxuazE5IiBpZD0ibGlua19CRF9Nb25pdG9yIj48cGF0aCBjb2RlTGluZT0iMjkiIGQ9Ik0yMzcuMzksMzk2Ljk4NDQgQzIxMy42Miw0MDcuMDc0NCAxNjkuNzksNDI5LjY1NDQgMTg3LjQ5LDQ1Mi45ODQ0IEMyMDMuNjcsNDc0LjMyNDQgMjcyLjQ0ODYsNDg3LjY0OTkgMzE1LjkyODYsNDk0LjI3OTkiIGZpbGw9Im5vbmUiIGlkPSJCRC10by1Nb25pdG9yIiBzdHlsZT0ic3Ryb2tlOiMxODE4MTg7c3Ryb2tlLXdpZHRoOjE7Ii8+PHBvbHlnb24gZmlsbD0iIzE4MTgxOCIgcG9pbnRzPSIzMjEuODYsNDk1LjE4NDQsMzEzLjU2NTgsNDg5Ljg3MzQsMzE2LjkxNzEsNDk0LjQzMDcsMzEyLjM1OTksNDk3Ljc4MiwzMjEuODYsNDk1LjE4NDQiIHN0eWxlPSJzdHJva2U6IzE4MTgxODtzdHJva2Utd2lkdGg6MTsiLz48dGV4dCBmaWxsPSIjMDAwMDAwIiBmb250LWZhbWlseT0ic2Fucy1zZXJpZiIgZm9udC1zaXplPSIxMyIgZm9udC13ZWlnaHQ9ImJvbGQiIGxlbmd0aEFkanVzdD0ic3BhY2luZyIgdGV4dExlbmd0aD0iMTE3IiB4PSIxODguNDkiIHk9IjQ1MS4yNzM0Ij40LjI6IENvbmZpcm1hJiMyMzE7JiMyMjc7bygpPC90ZXh0PjwvZz48IS0tU1JDPVtQTEpCaGpEMDNEdGRBeG1aaEtYSC1qWHFXVEdzam1aNGxMbkg4SE84ZU1kWWpXRjlrM1dKTEY0eEJBeFdEX2ZaVTJQOUlTOGdheDZGcF82bjR3ampaZjFlVE1ITEFDV0dEYkhLSGdWZy1kSnpIS2pPN0hjRnpPa0I5WWdaNGk4RmNwV1UxUzRwSUYyV1pNeDI0ZGN0X3VnTW9lM2FjTGZ1R19sc2syNVpjVjhTa1J0UDhWX0dBUlFsTXFkMGt1ajVEZ2d6TW9WandQd0NqZEozdFlsLVhsUVNBeTZCWjVNY0txcjZUVS1WbXZicTJUVlZLNGJkbFplcXZLNzJQUWFvMVU1cTU3STk4VmZxcWJjNnZkQ3F2OFlZMkJQdlRRN1FmSG9qMGVIN3Y1QU56bGg3ZjVoQW5IMzFSMUFGTjdPR0lGam9VRGRmN1BPbTdpVEI0RENhZC1pb2h2MUw3ZXg2dXcySnc3MkRHcExlOFozWXhuTU1iYmthMXhMUDNqN0h4NTdKOVFHZGNJb2w3YnpfLU9aeE5TaGdaRW5udFRtWHN6SW5pT25JRjY0X3ozTE5DaldtYnNSTGFCTUY1Q3VwYXRVTzd1V0JiVWtWSlA3X3pBdUozdmU5ZjNQSXl5Zkt1Z05hUFd2bkFvMWQxblIwYTc3Y2o4ZnAxb3NmcEpwR1pTRXAzSVZOQjk4Z3E1WTJTMnUzY3EtY3BTMXdMalE5ZGNCa3AzWGd4X3BFQWJrTHVRdm83VEFCaFNmRnRmMHNsekZNdDJieElxVjVUblRDZ3JISHNFY1hILTFTUXRsbWRyREZsM1JVV19leDJuVVlVTjVSaWd4Y21ROGpfaXRtRlBQTEdKcVBXc0xwby1mMUpsRzNNTnNHbG0xbFRQNkdYMXBZQm0wMF0tLT48L2c+PC9zdmc+;" vertex="1" parent="1">
            <mxGeometry x="-1370" y="427" width="1051" height="523" as="geometry" />
          </mxCell>
        </UserObject>
      </root>
    </mxGraphModel>
  </diagram>
  <diagram id="aibKrj5O2FOX5Aicb3hk" name="Page-2">
    <mxGraphModel dx="2693" dy="1027" grid="1" gridSize="10" guides="1" tooltips="1" connect="1" arrows="1" fold="1" page="1" pageScale="1" pageWidth="850" pageHeight="1100" math="0" shadow="0">
      <root>
        <mxCell id="0" />
        <mxCell id="1" parent="0" />
        <mxCell id="Ekl2NiA5p3S1xTMch9ig-1" value="Usuario" style="swimlane;fontStyle=1;childLayout=stackLayout;horizontal=1;startSize=26;horizontalStack=0;resizeParent=1;resizeParentMax=0;resizeLast=0;collapsible=1;marginBottom=0;" vertex="1" parent="1">
          <mxGeometry x="-680" y="440" width="160" height="164" as="geometry" />
        </mxCell>
        <mxCell id="Ekl2NiA5p3S1xTMch9ig-2" value="+nome: String" style="text;strokeColor=none;fillColor=none;align=left;verticalAlign=top;spacingLeft=4;spacingRight=4;overflow=hidden;rotatable=0;points=[[0,0.5],[1,0.5]];portConstraint=eastwest;" vertex="1" parent="Ekl2NiA5p3S1xTMch9ig-1">
          <mxGeometry y="26" width="160" height="26" as="geometry" />
        </mxCell>
        <mxCell id="Ekl2NiA5p3S1xTMch9ig-3" value="+email: String" style="text;strokeColor=none;fillColor=none;align=left;verticalAlign=top;spacingLeft=4;spacingRight=4;overflow=hidden;rotatable=0;points=[[0,0.5],[1,0.5]];portConstraint=eastwest;" vertex="1" parent="Ekl2NiA5p3S1xTMch9ig-1">
          <mxGeometry y="52" width="160" height="26" as="geometry" />
        </mxCell>
        <mxCell id="Ekl2NiA5p3S1xTMch9ig-4" value="+senha: String" style="text;strokeColor=none;fillColor=none;align=left;verticalAlign=top;spacingLeft=4;spacingRight=4;overflow=hidden;rotatable=0;points=[[0,0.5],[1,0.5]];portConstraint=eastwest;" vertex="1" parent="Ekl2NiA5p3S1xTMch9ig-1">
          <mxGeometry y="78" width="160" height="26" as="geometry" />
        </mxCell>
        <mxCell id="Ekl2NiA5p3S1xTMch9ig-5" value="" style="line;strokeWidth=1;fillColor=none;align=left;verticalAlign=middle;spacingTop=-1;spacingLeft=3;spacingRight=3;rotatable=0;labelPosition=right;points=[];portConstraint=eastwest;" vertex="1" parent="Ekl2NiA5p3S1xTMch9ig-1">
          <mxGeometry y="104" width="160" height="8" as="geometry" />
        </mxCell>
        <mxCell id="Ekl2NiA5p3S1xTMch9ig-6" value="+login(): void" style="text;strokeColor=none;fillColor=none;align=left;verticalAlign=top;spacingLeft=4;spacingRight=4;overflow=hidden;rotatable=0;points=[[0,0.5],[1,0.5]];portConstraint=eastwest;" vertex="1" parent="Ekl2NiA5p3S1xTMch9ig-1">
          <mxGeometry y="112" width="160" height="26" as="geometry" />
        </mxCell>
        <mxCell id="Ekl2NiA5p3S1xTMch9ig-7" value="+registrar(): void" style="text;strokeColor=none;fillColor=none;align=left;verticalAlign=top;spacingLeft=4;spacingRight=4;overflow=hidden;rotatable=0;points=[[0,0.5],[1,0.5]];portConstraint=eastwest;" vertex="1" parent="Ekl2NiA5p3S1xTMch9ig-1">
          <mxGeometry y="138" width="160" height="26" as="geometry" />
        </mxCell>
        <mxCell id="Ekl2NiA5p3S1xTMch9ig-8" value="Cliente" style="swimlane;fontStyle=1;childLayout=stackLayout;horizontal=1;startSize=26;horizontalStack=0;resizeParent=1;resizeParentMax=0;resizeLast=0;collapsible=1;marginBottom=0;" vertex="1" parent="1">
          <mxGeometry x="-680" y="250" width="230" height="138" as="geometry" />
        </mxCell>
        <mxCell id="Ekl2NiA5p3S1xTMch9ig-9" value="" style="line;strokeWidth=1;fillColor=none;align=left;verticalAlign=middle;spacingTop=-1;spacingLeft=3;spacingRight=3;rotatable=0;labelPosition=right;points=[];portConstraint=eastwest;" vertex="1" parent="Ekl2NiA5p3S1xTMch9ig-8">
          <mxGeometry y="26" width="230" height="8" as="geometry" />
        </mxCell>
        <mxCell id="Ekl2NiA5p3S1xTMch9ig-10" value="+buscarVeiculos(): void" style="text;strokeColor=none;fillColor=none;align=left;verticalAlign=top;spacingLeft=4;spacingRight=4;overflow=hidden;rotatable=0;points=[[0,0.5],[1,0.5]];portConstraint=eastwest;" vertex="1" parent="Ekl2NiA5p3S1xTMch9ig-8">
          <mxGeometry y="34" width="230" height="26" as="geometry" />
        </mxCell>
        <mxCell id="Ekl2NiA5p3S1xTMch9ig-11" value="+acessarDetalhes(): void" style="text;strokeColor=none;fillColor=none;align=left;verticalAlign=top;spacingLeft=4;spacingRight=4;overflow=hidden;rotatable=0;points=[[0,0.5],[1,0.5]];portConstraint=eastwest;" vertex="1" parent="Ekl2NiA5p3S1xTMch9ig-8">
          <mxGeometry y="60" width="230" height="26" as="geometry" />
        </mxCell>
        <mxCell id="Ekl2NiA5p3S1xTMch9ig-12" value="+visualizarAnunciosUnificados(): void" style="text;strokeColor=none;fillColor=none;align=left;verticalAlign=top;spacingLeft=4;spacingRight=4;overflow=hidden;rotatable=0;points=[[0,0.5],[1,0.5]];portConstraint=eastwest;" vertex="1" parent="Ekl2NiA5p3S1xTMch9ig-8">
          <mxGeometry y="86" width="230" height="26" as="geometry" />
        </mxCell>
        <mxCell id="Ekl2NiA5p3S1xTMch9ig-13" value="+analisarPrecoDeMercado(): void" style="text;strokeColor=none;fillColor=none;align=left;verticalAlign=top;spacingLeft=4;spacingRight=4;overflow=hidden;rotatable=0;points=[[0,0.5],[1,0.5]];portConstraint=eastwest;" vertex="1" parent="Ekl2NiA5p3S1xTMch9ig-8">
          <mxGeometry y="112" width="230" height="26" as="geometry" />
        </mxCell>
        <mxCell id="Ekl2NiA5p3S1xTMch9ig-14" value="Vendedor" style="swimlane;fontStyle=1;childLayout=stackLayout;horizontal=1;startSize=26;horizontalStack=0;resizeParent=1;resizeParentMax=0;resizeLast=0;collapsible=1;marginBottom=0;" vertex="1" parent="1">
          <mxGeometry x="-340" y="263" width="210" height="112" as="geometry" />
        </mxCell>
        <mxCell id="Ekl2NiA5p3S1xTMch9ig-15" value="" style="line;strokeWidth=1;fillColor=none;align=left;verticalAlign=middle;spacingTop=-1;spacingLeft=3;spacingRight=3;rotatable=0;labelPosition=right;points=[];portConstraint=eastwest;" vertex="1" parent="Ekl2NiA5p3S1xTMch9ig-14">
          <mxGeometry y="26" width="210" height="8" as="geometry" />
        </mxCell>
        <mxCell id="Ekl2NiA5p3S1xTMch9ig-16" value="+buscarOportunidades(): void" style="text;strokeColor=none;fillColor=none;align=left;verticalAlign=top;spacingLeft=4;spacingRight=4;overflow=hidden;rotatable=0;points=[[0,0.5],[1,0.5]];portConstraint=eastwest;" vertex="1" parent="Ekl2NiA5p3S1xTMch9ig-14">
          <mxGeometry y="34" width="210" height="26" as="geometry" />
        </mxCell>
        <mxCell id="Ekl2NiA5p3S1xTMch9ig-17" value="+analisarPrecoDeMercado(): void" style="text;strokeColor=none;fillColor=none;align=left;verticalAlign=top;spacingLeft=4;spacingRight=4;overflow=hidden;rotatable=0;points=[[0,0.5],[1,0.5]];portConstraint=eastwest;" vertex="1" parent="Ekl2NiA5p3S1xTMch9ig-14">
          <mxGeometry y="60" width="210" height="26" as="geometry" />
        </mxCell>
        <mxCell id="Ekl2NiA5p3S1xTMch9ig-18" value="+gerenciarAnuncios(): void" style="text;strokeColor=none;fillColor=none;align=left;verticalAlign=top;spacingLeft=4;spacingRight=4;overflow=hidden;rotatable=0;points=[[0,0.5],[1,0.5]];portConstraint=eastwest;" vertex="1" parent="Ekl2NiA5p3S1xTMch9ig-14">
          <mxGeometry y="86" width="210" height="26" as="geometry" />
        </mxCell>
        <mxCell id="Ekl2NiA5p3S1xTMch9ig-19" value="Administrador" style="swimlane;fontStyle=1;childLayout=stackLayout;horizontal=1;startSize=26;horizontalStack=0;resizeParent=1;resizeParentMax=0;resizeLast=0;collapsible=1;marginBottom=0;" vertex="1" parent="1">
          <mxGeometry x="-470" y="432" width="170" height="112" as="geometry" />
        </mxCell>
        <mxCell id="Ekl2NiA5p3S1xTMch9ig-20" value="" style="line;strokeWidth=1;fillColor=none;align=left;verticalAlign=middle;spacingTop=-1;spacingLeft=3;spacingRight=3;rotatable=0;labelPosition=right;points=[];portConstraint=eastwest;" vertex="1" parent="Ekl2NiA5p3S1xTMch9ig-19">
          <mxGeometry y="26" width="170" height="8" as="geometry" />
        </mxCell>
        <mxCell id="Ekl2NiA5p3S1xTMch9ig-21" value="+validarConteudo(): void" style="text;strokeColor=none;fillColor=none;align=left;verticalAlign=top;spacingLeft=4;spacingRight=4;overflow=hidden;rotatable=0;points=[[0,0.5],[1,0.5]];portConstraint=eastwest;" vertex="1" parent="Ekl2NiA5p3S1xTMch9ig-19">
          <mxGeometry y="34" width="170" height="26" as="geometry" />
        </mxCell>
        <mxCell id="Ekl2NiA5p3S1xTMch9ig-22" value="+monitorarDados(): void" style="text;strokeColor=none;fillColor=none;align=left;verticalAlign=top;spacingLeft=4;spacingRight=4;overflow=hidden;rotatable=0;points=[[0,0.5],[1,0.5]];portConstraint=eastwest;" vertex="1" parent="Ekl2NiA5p3S1xTMch9ig-19">
          <mxGeometry y="60" width="170" height="26" as="geometry" />
        </mxCell>
        <mxCell id="Ekl2NiA5p3S1xTMch9ig-23" value="+visualizarMetricas(): void" style="text;strokeColor=none;fillColor=none;align=left;verticalAlign=top;spacingLeft=4;spacingRight=4;overflow=hidden;rotatable=0;points=[[0,0.5],[1,0.5]];portConstraint=eastwest;" vertex="1" parent="Ekl2NiA5p3S1xTMch9ig-19">
          <mxGeometry y="86" width="170" height="26" as="geometry" />
        </mxCell>
        <mxCell id="Ekl2NiA5p3S1xTMch9ig-24" value="Anuncio" style="swimlane;fontStyle=1;childLayout=stackLayout;horizontal=1;startSize=26;horizontalStack=0;resizeParent=1;resizeParentMax=0;resizeLast=0;collapsible=1;marginBottom=0;" vertex="1" parent="1">
          <mxGeometry x="-240" y="420" width="190" height="216" as="geometry" />
        </mxCell>
        <mxCell id="Ekl2NiA5p3S1xTMch9ig-25" value="+id: String" style="text;strokeColor=none;fillColor=none;align=left;verticalAlign=top;spacingLeft=4;spacingRight=4;overflow=hidden;rotatable=0;points=[[0,0.5],[1,0.5]];portConstraint=eastwest;" vertex="1" parent="Ekl2NiA5p3S1xTMch9ig-24">
          <mxGeometry y="26" width="190" height="26" as="geometry" />
        </mxCell>
        <mxCell id="Ekl2NiA5p3S1xTMch9ig-26" value="+fonteOriginal: String" style="text;strokeColor=none;fillColor=none;align=left;verticalAlign=top;spacingLeft=4;spacingRight=4;overflow=hidden;rotatable=0;points=[[0,0.5],[1,0.5]];portConstraint=eastwest;" vertex="1" parent="Ekl2NiA5p3S1xTMch9ig-24">
          <mxGeometry y="52" width="190" height="26" as="geometry" />
        </mxCell>
        <mxCell id="Ekl2NiA5p3S1xTMch9ig-27" value="+urlOriginal: String" style="text;strokeColor=none;fillColor=none;align=left;verticalAlign=top;spacingLeft=4;spacingRight=4;overflow=hidden;rotatable=0;points=[[0,0.5],[1,0.5]];portConstraint=eastwest;" vertex="1" parent="Ekl2NiA5p3S1xTMch9ig-24">
          <mxGeometry y="78" width="190" height="26" as="geometry" />
        </mxCell>
        <mxCell id="Ekl2NiA5p3S1xTMch9ig-28" value="+preco: float" style="text;strokeColor=none;fillColor=none;align=left;verticalAlign=top;spacingLeft=4;spacingRight=4;overflow=hidden;rotatable=0;points=[[0,0.5],[1,0.5]];portConstraint=eastwest;" vertex="1" parent="Ekl2NiA5p3S1xTMch9ig-24">
          <mxGeometry y="104" width="190" height="26" as="geometry" />
        </mxCell>
        <mxCell id="Ekl2NiA5p3S1xTMch9ig-29" value="+dataDeColeta: Date" style="text;strokeColor=none;fillColor=none;align=left;verticalAlign=top;spacingLeft=4;spacingRight=4;overflow=hidden;rotatable=0;points=[[0,0.5],[1,0.5]];portConstraint=eastwest;" vertex="1" parent="Ekl2NiA5p3S1xTMch9ig-24">
          <mxGeometry y="130" width="190" height="26" as="geometry" />
        </mxCell>
        <mxCell id="Ekl2NiA5p3S1xTMch9ig-30" value="+isDuplicado: boolean" style="text;strokeColor=none;fillColor=none;align=left;verticalAlign=top;spacingLeft=4;spacingRight=4;overflow=hidden;rotatable=0;points=[[0,0.5],[1,0.5]];portConstraint=eastwest;" vertex="1" parent="Ekl2NiA5p3S1xTMch9ig-24">
          <mxGeometry y="156" width="190" height="26" as="geometry" />
        </mxCell>
        <mxCell id="Ekl2NiA5p3S1xTMch9ig-31" value="" style="line;strokeWidth=1;fillColor=none;align=left;verticalAlign=middle;spacingTop=-1;spacingLeft=3;spacingRight=3;rotatable=0;labelPosition=right;points=[];portConstraint=eastwest;" vertex="1" parent="Ekl2NiA5p3S1xTMch9ig-24">
          <mxGeometry y="182" width="190" height="8" as="geometry" />
        </mxCell>
        <mxCell id="Ekl2NiA5p3S1xTMch9ig-32" value="+identificarDuplicidade(): void" style="text;strokeColor=none;fillColor=none;align=left;verticalAlign=top;spacingLeft=4;spacingRight=4;overflow=hidden;rotatable=0;points=[[0,0.5],[1,0.5]];portConstraint=eastwest;" vertex="1" parent="Ekl2NiA5p3S1xTMch9ig-24">
          <mxGeometry y="190" width="190" height="26" as="geometry" />
        </mxCell>
        <mxCell id="Ekl2NiA5p3S1xTMch9ig-33" value="Veiculo" style="swimlane;fontStyle=1;childLayout=stackLayout;horizontal=1;startSize=26;horizontalStack=0;resizeParent=1;resizeParentMax=0;resizeLast=0;collapsible=1;marginBottom=0;" vertex="1" parent="1">
          <mxGeometry x="-680" y="650" width="160" height="260" as="geometry" />
        </mxCell>
        <mxCell id="Ekl2NiA5p3S1xTMch9ig-34" value="+marca: String" style="text;strokeColor=none;fillColor=none;align=left;verticalAlign=top;spacingLeft=4;spacingRight=4;overflow=hidden;rotatable=0;points=[[0,0.5],[1,0.5]];portConstraint=eastwest;" vertex="1" parent="Ekl2NiA5p3S1xTMch9ig-33">
          <mxGeometry y="26" width="160" height="26" as="geometry" />
        </mxCell>
        <mxCell id="Ekl2NiA5p3S1xTMch9ig-35" value="+modelo: String" style="text;strokeColor=none;fillColor=none;align=left;verticalAlign=top;spacingLeft=4;spacingRight=4;overflow=hidden;rotatable=0;points=[[0,0.5],[1,0.5]];portConstraint=eastwest;" vertex="1" parent="Ekl2NiA5p3S1xTMch9ig-33">
          <mxGeometry y="52" width="160" height="26" as="geometry" />
        </mxCell>
        <mxCell id="Ekl2NiA5p3S1xTMch9ig-36" value="+ano: int" style="text;strokeColor=none;fillColor=none;align=left;verticalAlign=top;spacingLeft=4;spacingRight=4;overflow=hidden;rotatable=0;points=[[0,0.5],[1,0.5]];portConstraint=eastwest;" vertex="1" parent="Ekl2NiA5p3S1xTMch9ig-33">
          <mxGeometry y="78" width="160" height="26" as="geometry" />
        </mxCell>
        <mxCell id="Ekl2NiA5p3S1xTMch9ig-37" value="+quilometragem: int" style="text;strokeColor=none;fillColor=none;align=left;verticalAlign=top;spacingLeft=4;spacingRight=4;overflow=hidden;rotatable=0;points=[[0,0.5],[1,0.5]];portConstraint=eastwest;" vertex="1" parent="Ekl2NiA5p3S1xTMch9ig-33">
          <mxGeometry y="104" width="160" height="26" as="geometry" />
        </mxCell>
        <mxCell id="Ekl2NiA5p3S1xTMch9ig-38" value="+combustivel: String" style="text;strokeColor=none;fillColor=none;align=left;verticalAlign=top;spacingLeft=4;spacingRight=4;overflow=hidden;rotatable=0;points=[[0,0.5],[1,0.5]];portConstraint=eastwest;" vertex="1" parent="Ekl2NiA5p3S1xTMch9ig-33">
          <mxGeometry y="130" width="160" height="26" as="geometry" />
        </mxCell>
        <mxCell id="Ekl2NiA5p3S1xTMch9ig-39" value="+cor: String" style="text;strokeColor=none;fillColor=none;align=left;verticalAlign=top;spacingLeft=4;spacingRight=4;overflow=hidden;rotatable=0;points=[[0,0.5],[1,0.5]];portConstraint=eastwest;" vertex="1" parent="Ekl2NiA5p3S1xTMch9ig-33">
          <mxGeometry y="156" width="160" height="26" as="geometry" />
        </mxCell>
        <mxCell id="Ekl2NiA5p3S1xTMch9ig-40" value="+descricao: String" style="text;strokeColor=none;fillColor=none;align=left;verticalAlign=top;spacingLeft=4;spacingRight=4;overflow=hidden;rotatable=0;points=[[0,0.5],[1,0.5]];portConstraint=eastwest;" vertex="1" parent="Ekl2NiA5p3S1xTMch9ig-33">
          <mxGeometry y="182" width="160" height="26" as="geometry" />
        </mxCell>
        <mxCell id="Ekl2NiA5p3S1xTMch9ig-41" value="+imagem: String" style="text;strokeColor=none;fillColor=none;align=left;verticalAlign=top;spacingLeft=4;spacingRight=4;overflow=hidden;rotatable=0;points=[[0,0.5],[1,0.5]];portConstraint=eastwest;" vertex="1" parent="Ekl2NiA5p3S1xTMch9ig-33">
          <mxGeometry y="208" width="160" height="26" as="geometry" />
        </mxCell>
        <mxCell id="Ekl2NiA5p3S1xTMch9ig-42" value="+valorFIPE: float" style="text;strokeColor=none;fillColor=none;align=left;verticalAlign=top;spacingLeft=4;spacingRight=4;overflow=hidden;rotatable=0;points=[[0,0.5],[1,0.5]];portConstraint=eastwest;" vertex="1" parent="Ekl2NiA5p3S1xTMch9ig-33">
          <mxGeometry y="234" width="160" height="26" as="geometry" />
        </mxCell>
        <mxCell id="Ekl2NiA5p3S1xTMch9ig-43" value="FonteDeDados" style="swimlane;fontStyle=1;childLayout=stackLayout;horizontal=1;startSize=26;horizontalStack=0;resizeParent=1;resizeParentMax=0;resizeLast=0;collapsible=1;marginBottom=0;" vertex="1" parent="1">
          <mxGeometry x="-425" y="710" width="160" height="112" as="geometry" />
        </mxCell>
        <mxCell id="Ekl2NiA5p3S1xTMch9ig-44" value="+nome: String" style="text;strokeColor=none;fillColor=none;align=left;verticalAlign=top;spacingLeft=4;spacingRight=4;overflow=hidden;rotatable=0;points=[[0,0.5],[1,0.5]];portConstraint=eastwest;" vertex="1" parent="Ekl2NiA5p3S1xTMch9ig-43">
          <mxGeometry y="26" width="160" height="26" as="geometry" />
        </mxCell>
        <mxCell id="Ekl2NiA5p3S1xTMch9ig-45" value="+urlBase: String" style="text;strokeColor=none;fillColor=none;align=left;verticalAlign=top;spacingLeft=4;spacingRight=4;overflow=hidden;rotatable=0;points=[[0,0.5],[1,0.5]];portConstraint=eastwest;" vertex="1" parent="Ekl2NiA5p3S1xTMch9ig-43">
          <mxGeometry y="52" width="160" height="26" as="geometry" />
        </mxCell>
        <mxCell id="Ekl2NiA5p3S1xTMch9ig-46" value="" style="line;strokeWidth=1;fillColor=none;align=left;verticalAlign=middle;spacingTop=-1;spacingLeft=3;spacingRight=3;rotatable=0;labelPosition=right;points=[];portConstraint=eastwest;" vertex="1" parent="Ekl2NiA5p3S1xTMch9ig-43">
          <mxGeometry y="78" width="160" height="8" as="geometry" />
        </mxCell>
        <mxCell id="Ekl2NiA5p3S1xTMch9ig-47" value="+coletarDados(): void" style="text;strokeColor=none;fillColor=none;align=left;verticalAlign=top;spacingLeft=4;spacingRight=4;overflow=hidden;rotatable=0;points=[[0,0.5],[1,0.5]];portConstraint=eastwest;" vertex="1" parent="Ekl2NiA5p3S1xTMch9ig-43">
          <mxGeometry y="86" width="160" height="26" as="geometry" />
        </mxCell>
        <mxCell id="Ekl2NiA5p3S1xTMch9ig-48" value="Metrica" style="swimlane;fontStyle=1;childLayout=stackLayout;horizontal=1;startSize=26;horizontalStack=0;resizeParent=1;resizeParentMax=0;resizeLast=0;collapsible=1;marginBottom=0;" vertex="1" parent="1">
          <mxGeometry x="-225" y="710" width="160" height="104" as="geometry" />
        </mxCell>
        <mxCell id="Ekl2NiA5p3S1xTMch9ig-49" value="+volumeDeAnuncios: int" style="text;strokeColor=none;fillColor=none;align=left;verticalAlign=top;spacingLeft=4;spacingRight=4;overflow=hidden;rotatable=0;points=[[0,0.5],[1,0.5]];portConstraint=eastwest;" vertex="1" parent="Ekl2NiA5p3S1xTMch9ig-48">
          <mxGeometry y="26" width="160" height="26" as="geometry" />
        </mxCell>
        <mxCell id="Ekl2NiA5p3S1xTMch9ig-50" value="+usuariosAtivos: int" style="text;strokeColor=none;fillColor=none;align=left;verticalAlign=top;spacingLeft=4;spacingRight=4;overflow=hidden;rotatable=0;points=[[0,0.5],[1,0.5]];portConstraint=eastwest;" vertex="1" parent="Ekl2NiA5p3S1xTMch9ig-48">
          <mxGeometry y="52" width="160" height="26" as="geometry" />
        </mxCell>
        <mxCell id="Ekl2NiA5p3S1xTMch9ig-51" value="+dataRegistro: Date" style="text;strokeColor=none;fillColor=none;align=left;verticalAlign=top;spacingLeft=4;spacingRight=4;overflow=hidden;rotatable=0;points=[[0,0.5],[1,0.5]];portConstraint=eastwest;" vertex="1" parent="Ekl2NiA5p3S1xTMch9ig-48">
          <mxGeometry y="78" width="160" height="26" as="geometry" />
        </mxCell>
      </root>
    </mxGraphModel>
  </diagram>
</mxfile>
